<svg width="1690" height="520" viewBox="0 0 1690 520" fill="none" xmlns="http://www.w3.org/2000/svg">
<path d="M1003.66 254.562C1005.76 254.677 1007.42 256.421 1007.41 258.546C1007.41 260.741 1005.62 262.512 1003.42 262.502L1003.06 262.506C1002.39 262.527 1001.98 262.624 1001.53 262.851L1001.3 262.976C1000.37 263.515 999.492 264.125 998.478 264.836C997.625 265.436 996.657 266.121 995.607 266.776L995.152 267.054C971.391 281.31 944.707 288.8 914.468 287.893L913.025 287.843C895.822 287.178 880.253 282.879 866.156 275.343L864.797 274.604C862.226 273.182 859.952 271.586 857.852 270.037C855.958 268.64 854.3 267.358 852.54 266.117L851.778 265.586C851.412 265.336 851.128 265.142 850.876 264.977C850.852 264.961 850.827 264.947 850.805 264.932C850.694 265.01 850.565 265.104 850.417 265.216L849.917 265.607C847.032 267.914 843.968 270.088 840.735 272.091L839.34 272.94C825.408 281.236 809.826 286.244 792.286 287.581L790.582 287.699C780.125 288.35 769.806 287.983 759.545 286.395L758.553 286.238C747.017 284.363 735.903 281.419 725.422 276.968L724.41 276.533C715.643 272.714 707.565 268.208 700.104 263.028L698.62 261.983L698.457 261.86C696.811 260.553 696.461 258.17 697.696 256.44C698.932 254.71 701.299 254.269 703.069 255.402L703.239 255.516L704.636 256.5C711.659 261.376 719.28 265.631 727.583 269.248L728.528 269.654C738.311 273.807 748.789 276.601 759.827 278.394L761.693 278.683C771.031 280.056 780.466 280.367 790.089 279.768L791.677 279.658C808.029 278.412 822.423 273.764 835.273 266.112L836.55 265.336C839.506 263.505 842.31 261.515 844.954 259.401L845.515 258.959C846.886 257.897 848.714 256.693 850.946 256.75C852.264 256.783 853.335 257.237 854.116 257.658C854.848 258.052 855.616 258.584 856.268 259.031L857.092 259.603C859.005 260.952 860.864 262.385 862.567 263.641C864.578 265.124 866.525 266.479 868.643 267.65L869.898 268.334C882.921 275.295 897.314 279.283 913.333 279.903L914.702 279.95C943.397 280.811 968.585 273.727 991.064 260.24L991.758 259.808C992.448 259.363 993.136 258.877 993.914 258.332C994.913 257.631 996.054 256.834 997.319 256.101L997.725 255.875C999.737 254.806 1001.57 254.548 1003.46 254.556L1003.66 254.562ZM698.004 241.906C698.631 239.9 700.73 238.717 702.788 239.249C704.351 239.652 705.454 240.931 705.711 242.425C711.005 246.327 716.809 249.761 723.103 252.71L724.17 253.204C735.214 258.258 747.066 261.822 759.742 263.586L761.712 263.848C771.237 265.051 780.782 265.356 790.378 264.443L791.371 264.343C798.389 263.614 805.08 262.575 811.337 260.641L812.528 260.264C824.784 256.293 835.099 250.093 844.355 242.643L844.666 242.398C846.24 241.178 848.17 240.051 850.492 239.966C853.076 239.872 855.171 241.087 856.854 242.482L857.982 243.403C860.631 245.537 863.406 247.564 866.33 249.507L867.242 250.105C876.706 256.222 887.503 260.549 899.556 262.948L900.909 263.209C914.903 265.805 929.123 265.545 943.393 263.206L945.326 262.876C965.222 259.359 982.426 252.305 996.685 241.276L996.85 241.155C998.575 239.954 1000.96 240.306 1002.26 241.987C1003.6 243.722 1003.28 246.218 1001.55 247.561L1000.8 248.135C985.501 259.752 967.301 267.061 946.711 270.702L944.678 271.048C929.669 273.508 914.51 273.814 899.461 271.022L898.005 270.742C885.033 268.16 873.288 263.475 862.93 256.78L861.932 256.125C858.816 254.054 855.844 251.885 852.997 249.591L851.784 248.6C851.204 248.12 850.883 247.967 850.757 247.92C850.643 247.959 850.333 248.088 849.757 248.51L849.338 248.834C839.493 256.757 828.338 263.494 814.982 267.822L813.683 268.234C807.139 270.256 800.33 271.355 793.548 272.103L792.192 272.248C781.569 273.351 771.078 273.041 760.717 271.732L758.646 271.458C745.182 269.583 732.586 265.795 720.863 260.43L719.732 259.907C713.362 256.922 707.425 253.456 701.952 249.518L700.863 248.724C700.426 248.401 699.507 247.726 698.819 246.757C697.971 245.563 697.474 243.938 697.948 242.102L698.004 241.906ZM983.193 103.304C983.66 101.135 985.752 99.6899 987.967 100.05C990.181 100.411 991.707 102.445 991.462 104.65L991.433 104.864C991.428 104.893 991.413 105.025 991.438 105.423C991.451 105.618 991.533 106.523 991.551 107.071C991.578 107.924 991.53 109.003 991.168 110.153C992.83 113.157 992.745 116.369 992.872 117.678L993.054 119.65C993.456 124.268 993.725 128.986 994.075 133.403L994.496 138.592C994.929 143.831 995.388 149.186 995.792 154.354L996.041 157.55C996.288 160.765 996.521 164.031 996.651 167.302L996.7 168.366C996.825 170.851 997.032 173.355 997.255 175.926C997.506 178.837 997.778 181.852 997.941 184.877L998.042 186.54C998.298 190.394 998.693 194.118 999.001 198.244L999.088 199.332C999.551 204.835 1000.44 211.283 1000.61 217.179L1000.64 217.905C1000.72 219.6 1000.89 221.304 1001.06 223.214C1001.22 225.062 1001.37 227.061 1001.35 229.123L1001.33 230.009C1001.24 232.705 999.753 234.362 998.521 235.389L998.279 235.586C992.12 240.476 984.932 244.095 977.672 247.211L976.219 247.829C962.382 253.644 947.647 257.124 931.917 258.03L930.392 258.109C914.316 258.862 899.072 256.607 884.681 250.861L883.291 250.294C873.258 246.115 864.659 240.644 856.638 234.851L855.041 233.688C854.498 233.29 853.988 232.879 853.562 232.538C853.113 232.177 852.747 231.884 852.379 231.616C851.759 231.163 851.243 230.862 850.713 230.666L850.648 230.643C849.914 230.991 849.235 231.382 848.594 231.818L848.157 232.126C842.523 236.263 836.663 240.703 830.011 244.483L828.669 245.23C808.612 256.169 786.552 260.264 762.385 257.38L761.232 257.238C753.212 256.21 745.396 254.64 737.83 252.365L736.32 251.901C724.888 248.304 713.8 243.717 704.432 236.768L703.53 236.088C702.439 235.251 701.387 234.185 700.687 232.783C699.955 231.315 699.754 229.771 699.939 228.254L700.03 227.475C700.231 225.654 700.362 223.802 700.49 221.873C700.634 219.7 700.774 217.401 701.009 215.104L701.123 213.914C701.373 211.131 701.513 208.316 701.657 205.407C701.82 202.117 701.986 198.701 702.329 195.278L702.403 194.415C702.467 193.545 702.502 192.646 702.548 191.639C702.606 190.349 702.68 188.9 702.878 187.422L703.034 186.199C703.781 180.089 704.017 174.07 704.533 167.578L704.708 165.304C705.104 159.965 705.442 154.397 706.026 148.945L706.299 146.305C706.911 140.145 707.362 133.969 707.705 127.771L707.852 125.403C708.012 123.038 708.214 120.682 708.437 118.35L708.475 117.832C708.485 117.643 708.495 117.433 708.506 117.185C708.526 116.73 708.552 116.143 708.616 115.534C708.747 114.286 709.055 112.701 709.991 111.105L710.179 110.762C710.337 110.445 710.418 110.201 710.454 110.022C710.486 109.866 710.489 109.742 710.47 109.623L710.444 109.504L710.392 109.295C709.905 107.13 711.198 104.941 713.359 104.339C715.493 103.745 717.699 104.914 718.432 106.968C721.04 107.484 723.297 108.482 725.249 109.5L726.097 109.938C734.875 114.418 744.403 117.745 754.619 120.212L755.506 120.422C764.667 122.546 774.033 123.331 783.375 122.609L784.773 122.489C799.153 121.116 811.21 115.878 821.308 107.9L821.843 107.468C822.377 107.028 822.911 106.563 823.477 106.065C824.212 105.42 825.024 104.697 825.865 104L826.33 103.62C827.464 102.704 828.947 101.655 830.829 101.394C832.973 101.097 834.907 101.925 836.326 102.547L836.754 102.746C837.737 103.224 838.615 103.803 839.124 104.116L839.371 104.26C840.626 104.968 842.206 105.401 844.332 105.829C846.187 106.202 848.683 106.6 851.018 107.355C851.089 107.331 851.171 107.307 851.262 107.275C851.443 107.211 851.631 107.14 851.862 107.054C852.082 106.972 852.338 106.877 852.601 106.785C853.109 106.606 853.782 106.389 854.507 106.256L855.224 106.122C858.764 105.43 861.647 104.51 863.973 102.924L864.247 102.744C864.898 102.33 865.638 101.964 866.447 101.682C867.844 100.049 870.258 99.7382 872.022 100.963L872.196 101.091L873.588 102.18C880.433 107.601 885.686 112.655 893.483 116.005L894.348 116.372C903.289 120.115 912.53 122.442 922.731 122.534L924.15 122.537C938.775 122.463 952.258 119.223 965.264 113.988L966.8 113.364C970.36 111.902 973.763 110.39 976.978 108.674L977.502 108.406C979.272 107.536 981.172 106.969 983.121 106.662C983.105 106.462 983.083 106.204 983.067 105.961C983.028 105.352 982.997 104.478 983.153 103.516L983.193 103.304ZM831.934 109.345C831.791 109.442 831.602 109.582 831.344 109.788L830.935 110.12C830.207 110.723 829.508 111.344 828.723 112.035C828.149 112.539 827.538 113.072 826.892 113.604L826.233 114.135C814.978 123.028 801.486 128.873 785.538 130.398L783.987 130.532C773.792 131.319 763.614 130.459 753.711 128.164L752.754 127.937C742.053 125.352 731.919 121.831 722.484 117.016L721.573 116.545C720.155 115.806 718.827 115.233 717.48 114.896C717.472 114.912 717.465 114.928 717.456 114.944L717.227 115.348C717.127 115.519 717.023 115.791 716.958 116.411C716.924 116.735 716.906 117.085 716.885 117.559C716.87 117.884 716.854 118.291 716.823 118.718L716.787 119.151C716.569 121.428 716.374 123.703 716.22 125.97L716.08 128.235C715.731 134.528 715.273 140.829 714.645 147.135L714.366 149.839C713.794 155.171 713.482 160.419 713.076 165.885L712.895 168.243C712.414 174.294 712.139 180.839 711.355 187.252L711.192 188.534C711.048 189.611 710.985 190.733 710.927 192.018C710.885 192.943 710.846 193.98 710.768 195.044L710.675 196.115C710.356 199.29 710.199 202.492 710.035 205.821C709.893 208.702 709.745 211.678 709.477 214.672L709.353 215.956C709.138 218.068 709.008 220.186 708.859 222.427C708.716 224.589 708.556 226.847 708.282 229.125C708.353 229.197 708.464 229.301 708.637 229.434L709.433 230.035C717.714 236.177 727.79 240.423 738.838 243.899L740.246 244.333C747.306 246.456 754.663 247.94 762.299 248.918L763.374 249.051C785.917 251.742 806.215 247.922 824.653 237.866L825.882 237.181C831.979 233.717 837.398 229.619 843.193 225.365L843.536 225.118C844.453 224.47 845.409 223.895 846.408 223.384C846.402 220.981 846.406 218.576 846.406 216.196V114.343C845.327 114.108 844.143 113.896 842.766 113.619C840.559 113.175 837.905 112.559 835.45 111.172L834.962 110.884C834.162 110.392 833.747 110.119 833.319 109.911L833.134 109.825C832.548 109.568 832.179 109.425 831.934 109.345ZM868.959 109.225C868.826 109.278 868.7 109.337 868.586 109.404L868.449 109.49C864.818 111.965 860.691 113.154 856.726 113.925L855.935 114.074C855.638 114.128 855.363 114.232 854.795 114.443V216.196C854.795 218.579 854.79 220.938 854.796 223.298C855.774 223.771 856.608 224.317 857.325 224.84C857.873 225.24 858.386 225.652 858.814 225.997C859.267 226.36 859.634 226.654 860.003 226.925L861.551 228.052C869.306 233.652 877.311 238.718 886.516 242.551L887.787 243.07C900.949 248.325 914.983 250.433 929.999 249.73L931.433 249.656C946.213 248.805 960.012 245.54 972.969 240.095L974.375 239.499C981.323 236.514 987.677 233.269 992.963 229.095C992.981 227.464 992.862 225.782 992.701 223.948C992.548 222.198 992.349 220.241 992.258 218.267L992.227 217.42C992.058 211.592 991.252 206.34 990.735 200.125L990.637 198.868C990.359 195.142 989.933 191.015 989.668 187.029L989.565 185.33C989.411 182.47 989.154 179.611 988.897 176.648C988.675 174.08 988.456 171.443 988.322 168.78L988.27 167.637C988.145 164.511 987.923 161.381 987.679 158.204L987.43 155.008C987.015 149.702 986.575 144.584 986.143 139.35L985.714 134.066C985.34 129.354 985.093 124.931 984.701 120.424L984.523 118.487C984.465 117.882 984.41 117.054 984.374 116.617C984.328 116.066 984.278 115.639 984.205 115.268C984.186 115.171 984.164 115.08 984.143 114.994C983.053 115.19 982.067 115.509 981.203 115.933L980.928 116.074C977.368 117.973 973.676 119.608 969.98 121.125L968.396 121.769C954.613 127.317 940.079 130.844 924.197 130.924L922.656 130.921C910.786 130.815 900.175 128.009 890.173 123.711C881.476 119.975 874.967 114.062 868.959 109.225Z" fill="#FFF8F3"/>
<path d="M136.635 270.632C137.335 270.632 137.985 269.932 138.585 268.532C139.285 267.132 139.635 264.832 139.635 261.632V189.632C139.635 186.432 139.285 184.182 138.585 182.882C137.885 181.482 137.185 180.732 136.485 180.632H185.685C194.785 180.632 201.935 181.882 207.135 184.382C212.435 186.782 216.185 190.232 218.385 194.732C220.585 199.132 221.685 204.282 221.685 210.182C221.685 216.382 220.535 221.782 218.235 226.382C216.035 230.882 212.285 234.382 206.985 236.882C201.785 239.282 194.685 240.482 185.685 240.482H156.435V261.632C156.435 264.832 156.785 267.132 157.485 268.532C158.185 269.932 158.885 270.632 159.585 270.632H136.635ZM162.585 228.632H182.535C189.035 228.632 193.885 227.832 197.085 226.232C200.285 224.632 202.385 222.432 203.385 219.632C204.485 216.832 205.035 213.682 205.035 210.182C205.035 206.482 204.385 203.332 203.085 200.732C201.785 198.132 199.485 196.182 196.185 194.882C192.985 193.482 188.435 192.782 182.535 192.782H162.585C159.485 192.782 157.685 192.982 157.185 193.382C156.685 193.682 156.435 194.832 156.435 196.832V224.432C156.435 226.432 156.685 227.632 157.185 228.032C157.685 228.432 159.485 228.632 162.585 228.632ZM232.948 270.632C233.648 270.632 234.348 269.932 235.048 268.532C235.748 267.132 236.098 264.832 236.098 261.632V189.632C236.098 186.432 235.748 184.182 235.048 182.882C234.348 181.482 233.648 180.732 232.948 180.632H317.398V183.632L320.398 198.032C317.898 196.932 313.498 195.782 307.198 194.582C300.898 193.282 293.298 192.632 284.398 192.632H259.048C256.048 192.632 254.248 192.882 253.648 193.382C253.148 193.782 252.898 195.032 252.898 197.132V214.232C252.898 216.432 253.148 217.732 253.648 218.132C254.248 218.532 255.998 218.732 258.898 218.732H283.648C289.448 218.732 294.098 218.432 297.598 217.832C301.198 217.132 303.548 216.432 304.648 215.732C304.248 217.032 303.798 218.582 303.298 220.382C302.798 222.182 302.398 223.982 302.098 225.782C301.798 227.582 301.648 229.232 301.648 230.732H258.898C255.998 230.732 254.248 230.932 253.648 231.332C253.148 231.632 252.898 232.932 252.898 235.232V253.832C252.898 256.132 253.148 257.482 253.648 257.882C254.148 258.282 255.898 258.482 258.898 258.482H302.548C308.348 258.482 312.998 257.832 316.498 256.532C320.098 255.132 322.448 253.782 323.548 252.482L320.548 265.982V270.632H232.948ZM324.687 270.632C325.087 270.632 325.787 269.932 326.787 268.532C327.787 267.132 329.087 264.782 330.687 261.482C331.387 259.982 332.587 257.432 334.287 253.832C335.987 250.232 337.987 245.982 340.287 241.082C342.587 236.182 344.987 231.082 347.487 225.782C349.987 220.382 352.337 215.232 354.537 210.332C356.837 205.432 358.837 201.132 360.537 197.432C362.237 193.732 363.437 191.132 364.137 189.632C365.537 186.432 366.287 184.132 366.387 182.732C366.487 181.332 366.287 180.632 365.787 180.632H392.037C391.637 180.632 391.487 181.332 391.587 182.732C391.687 184.132 392.387 186.432 393.687 189.632C394.387 191.132 395.537 193.732 397.137 197.432C398.737 201.032 400.637 205.282 402.837 210.182C405.137 215.082 407.487 220.182 409.887 225.482C412.287 230.682 414.637 235.732 416.937 240.632C419.237 245.532 421.237 249.832 422.937 253.532C424.637 257.232 425.887 259.882 426.687 261.482C428.287 264.782 429.737 267.132 431.037 268.532C432.437 269.932 433.487 270.632 434.187 270.632H406.437C407.437 270.432 408.237 269.632 408.837 268.232C409.537 266.832 409.437 264.582 408.537 261.482C408.337 260.682 407.987 259.532 407.487 258.032C406.987 256.532 406.537 255.432 406.137 254.732C405.537 253.332 404.937 252.332 404.337 251.732C403.737 251.132 402.937 250.732 401.937 250.532C401.037 250.332 399.737 250.232 398.037 250.232H359.637C357.737 250.232 356.237 250.332 355.137 250.532C354.037 250.632 353.187 250.982 352.587 251.582C352.087 252.182 351.587 253.182 351.087 254.582C350.687 255.782 350.287 256.982 349.887 258.182C349.487 259.382 349.187 260.482 348.987 261.482C348.087 264.782 347.837 267.132 348.237 268.532C348.637 269.932 349.187 270.632 349.887 270.632H324.687ZM363.537 238.232H393.687C396.587 238.232 398.187 237.982 398.487 237.482C398.787 236.982 398.637 235.882 398.037 234.182C396.737 230.982 395.237 227.532 393.537 223.832C391.837 220.032 390.087 216.282 388.287 212.582C386.587 208.782 384.887 205.182 383.187 201.782C381.587 198.282 380.187 195.232 378.987 192.632H378.687C376.587 197.032 374.437 201.632 372.237 206.432C370.037 211.132 367.937 215.582 365.937 219.782C364.037 223.882 362.487 227.232 361.287 229.832C360.087 232.432 359.487 233.732 359.487 233.732C358.787 235.332 358.537 236.482 358.737 237.182C359.037 237.882 360.637 238.232 363.537 238.232ZM482.544 272.132C465.344 272.132 452.444 268.432 443.844 261.032C435.344 253.532 431.094 241.732 431.094 225.632C431.094 216.332 432.844 208.232 436.344 201.332C439.844 194.332 445.394 188.882 452.994 184.982C460.594 181.082 470.444 179.132 482.544 179.132C492.044 179.132 499.944 179.632 506.244 180.632C512.544 181.632 516.794 182.632 518.994 183.632V186.632L521.994 200.132C520.094 198.832 517.244 197.482 513.444 196.082C509.744 194.682 505.294 193.532 500.094 192.632C494.894 191.632 489.144 191.132 482.844 191.132C473.944 191.132 466.944 192.632 461.844 195.632C456.744 198.532 453.144 202.582 451.044 207.782C448.944 212.982 447.894 218.932 447.894 225.632C447.894 232.332 448.944 238.282 451.044 243.482C453.244 248.582 457.144 252.632 462.744 255.632C468.444 258.532 476.594 259.982 487.194 259.982C495.794 259.982 502.944 258.982 508.644 256.982C514.444 254.882 518.394 252.882 520.494 250.982V255.482L521.994 264.632C520.294 266.232 516.144 267.882 509.544 269.582C503.044 271.282 494.044 272.132 482.544 272.132ZM534.055 270.632C534.755 270.632 535.455 269.932 536.155 268.532C536.855 267.132 537.205 264.832 537.205 261.632V189.632C537.205 186.432 536.855 184.182 536.155 182.882C535.455 181.482 534.755 180.732 534.055 180.632H557.155C556.455 180.632 555.755 181.332 555.055 182.732C554.355 184.132 554.005 186.482 554.005 189.782V214.232C554.005 216.432 554.255 217.732 554.755 218.132C555.355 218.532 557.155 218.732 560.155 218.732H605.005C608.005 218.732 609.755 218.582 610.255 218.282C610.755 217.882 611.005 216.532 611.005 214.232V189.632C611.005 186.432 610.655 184.182 609.955 182.882C609.255 181.482 608.555 180.732 607.855 180.632H630.955C630.255 180.632 629.555 181.332 628.855 182.732C628.155 184.132 627.805 186.482 627.805 189.782V261.632C627.805 264.832 628.155 267.132 628.855 268.532C629.555 269.932 630.255 270.632 630.955 270.632H607.855C608.555 270.632 609.255 269.932 609.955 268.532C610.655 267.132 611.005 264.832 611.005 261.632V235.232C611.005 232.932 610.705 231.632 610.105 231.332C609.605 230.932 607.905 230.732 605.005 230.732H560.155C557.155 230.732 555.355 230.932 554.755 231.332C554.255 231.732 554.005 233.032 554.005 235.232V261.632C554.005 264.832 554.355 267.132 555.055 268.532C555.755 269.932 556.455 270.632 557.155 270.632H534.055Z" fill="#FFF8F3"/>
<path d="M1073.06 264.632C1073.76 264.632 1074.41 263.932 1075.01 262.532C1075.71 261.132 1076.06 258.832 1076.06 255.632V183.632C1076.06 180.432 1075.71 178.182 1075.01 176.882C1074.31 175.482 1073.61 174.732 1072.91 174.632H1122.11C1131.21 174.632 1138.36 175.882 1143.56 178.382C1148.86 180.782 1152.61 184.232 1154.81 188.732C1157.01 193.132 1158.11 198.282 1158.11 204.182C1158.11 210.382 1156.96 215.782 1154.66 220.382C1152.46 224.882 1148.71 228.382 1143.41 230.882C1138.21 233.282 1131.11 234.482 1122.11 234.482H1092.86V255.632C1092.86 258.832 1093.21 261.132 1093.91 262.532C1094.61 263.932 1095.31 264.632 1096.01 264.632H1073.06ZM1099.01 222.632H1118.96C1125.46 222.632 1130.31 221.832 1133.51 220.232C1136.71 218.632 1138.81 216.432 1139.81 213.632C1140.91 210.832 1141.46 207.682 1141.46 204.182C1141.46 200.482 1140.81 197.332 1139.51 194.732C1138.21 192.132 1135.91 190.182 1132.61 188.882C1129.41 187.482 1124.86 186.782 1118.96 186.782H1099.01C1095.91 186.782 1094.11 186.982 1093.61 187.382C1093.11 187.682 1092.86 188.832 1092.86 190.832V218.432C1092.86 220.432 1093.11 221.632 1093.61 222.032C1094.11 222.432 1095.91 222.632 1099.01 222.632ZM1152.64 264.632C1153.04 264.632 1153.74 263.932 1154.74 262.532C1155.74 261.132 1157.04 258.782 1158.64 255.482C1159.34 253.982 1160.54 251.432 1162.24 247.832C1163.94 244.232 1165.94 239.982 1168.24 235.082C1170.54 230.182 1172.94 225.082 1175.44 219.782C1177.94 214.382 1180.29 209.232 1182.49 204.332C1184.79 199.432 1186.79 195.132 1188.49 191.432C1190.19 187.732 1191.39 185.132 1192.09 183.632C1193.49 180.432 1194.24 178.132 1194.34 176.732C1194.44 175.332 1194.24 174.632 1193.74 174.632H1219.99C1219.59 174.632 1219.44 175.332 1219.54 176.732C1219.64 178.132 1220.34 180.432 1221.64 183.632C1222.34 185.132 1223.49 187.732 1225.09 191.432C1226.69 195.032 1228.59 199.282 1230.79 204.182C1233.09 209.082 1235.44 214.182 1237.84 219.482C1240.24 224.682 1242.59 229.732 1244.89 234.632C1247.19 239.532 1249.19 243.832 1250.89 247.532C1252.59 251.232 1253.84 253.882 1254.64 255.482C1256.24 258.782 1257.69 261.132 1258.99 262.532C1260.39 263.932 1261.44 264.632 1262.14 264.632H1234.39C1235.39 264.432 1236.19 263.632 1236.79 262.232C1237.49 260.832 1237.39 258.582 1236.49 255.482C1236.29 254.682 1235.94 253.532 1235.44 252.032C1234.94 250.532 1234.49 249.432 1234.09 248.732C1233.49 247.332 1232.89 246.332 1232.29 245.732C1231.69 245.132 1230.89 244.732 1229.89 244.532C1228.99 244.332 1227.69 244.232 1225.99 244.232H1187.59C1185.69 244.232 1184.19 244.332 1183.09 244.532C1181.99 244.632 1181.14 244.982 1180.54 245.582C1180.04 246.182 1179.54 247.182 1179.04 248.582C1178.64 249.782 1178.24 250.982 1177.84 252.182C1177.44 253.382 1177.14 254.482 1176.94 255.482C1176.04 258.782 1175.79 261.132 1176.19 262.532C1176.59 263.932 1177.14 264.632 1177.84 264.632H1152.64ZM1191.49 232.232H1221.64C1224.54 232.232 1226.14 231.982 1226.44 231.482C1226.74 230.982 1226.59 229.882 1225.99 228.182C1224.69 224.982 1223.19 221.532 1221.49 217.832C1219.79 214.032 1218.04 210.282 1216.24 206.582C1214.54 202.782 1212.84 199.182 1211.14 195.782C1209.54 192.282 1208.14 189.232 1206.94 186.632H1206.64C1204.54 191.032 1202.39 195.632 1200.19 200.432C1197.99 205.132 1195.89 209.582 1193.89 213.782C1191.99 217.882 1190.44 221.232 1189.24 223.832C1188.04 226.432 1187.44 227.732 1187.44 227.732C1186.74 229.332 1186.49 230.482 1186.69 231.182C1186.99 231.882 1188.59 232.232 1191.49 232.232ZM1303 266.132C1289.4 266.132 1278.65 262.382 1270.75 254.882C1262.95 247.282 1259.05 235.632 1259.05 219.932C1259.05 210.732 1260.8 202.632 1264.3 195.632C1267.8 188.532 1273.35 183.032 1280.95 179.132C1288.55 175.132 1298.4 173.132 1310.5 173.132C1320 173.132 1327.85 173.632 1334.05 174.632C1340.35 175.632 1344.65 176.632 1346.95 177.632V180.632L1349.95 194.132C1347.25 192.132 1342.5 190.132 1335.7 188.132C1328.9 186.132 1320.6 185.132 1310.8 185.132C1302.8 185.132 1296.2 186.632 1291 189.632C1285.8 192.532 1281.95 196.582 1279.45 201.782C1277.05 206.982 1275.85 213.032 1275.85 219.932C1275.85 227.132 1276.95 233.282 1279.15 238.382C1281.45 243.482 1285.05 247.382 1289.95 250.082C1294.85 252.682 1301.25 253.982 1309.15 253.982C1315.95 253.982 1321.35 253.232 1325.35 251.732C1329.35 250.232 1332.2 248.232 1333.9 245.732C1335.6 243.132 1336.45 240.332 1336.45 237.332V233.432C1336.45 231.132 1336.25 229.832 1335.85 229.532C1335.55 229.132 1334.25 228.932 1331.95 228.932H1327.15C1321.55 228.932 1317.05 229.282 1313.65 229.982C1310.35 230.682 1308.25 231.382 1307.35 232.082L1308.85 220.232V217.232H1356.1C1355.4 217.332 1354.7 218.082 1354 219.482C1353.4 220.782 1353.1 223.032 1353.1 226.232V255.632C1353.1 258.832 1353.4 261.132 1354 262.532C1354.7 263.932 1355.4 264.632 1356.1 264.632H1336.45V261.182L1336.75 256.982L1336.45 256.682C1334.85 258.382 1332.75 259.982 1330.15 261.482C1327.55 262.882 1324.05 263.982 1319.65 264.782C1315.35 265.682 1309.8 266.132 1303 266.132ZM1369.63 264.632C1370.33 264.632 1371.03 263.932 1371.73 262.532C1372.43 261.132 1372.78 258.832 1372.78 255.632V183.632C1372.78 180.432 1372.43 178.182 1371.73 176.882C1371.03 175.482 1370.33 174.732 1369.63 174.632H1454.08V177.632L1457.08 192.032C1454.58 190.932 1450.18 189.782 1443.88 188.582C1437.58 187.282 1429.98 186.632 1421.08 186.632H1395.73C1392.73 186.632 1390.93 186.882 1390.33 187.382C1389.83 187.782 1389.58 189.032 1389.58 191.132V208.232C1389.58 210.432 1389.83 211.732 1390.33 212.132C1390.93 212.532 1392.68 212.732 1395.58 212.732H1420.33C1426.13 212.732 1430.78 212.432 1434.28 211.832C1437.88 211.132 1440.23 210.432 1441.33 209.732C1440.93 211.032 1440.48 212.582 1439.98 214.382C1439.48 216.182 1439.08 217.982 1438.78 219.782C1438.48 221.582 1438.33 223.232 1438.33 224.732H1395.58C1392.68 224.732 1390.93 224.932 1390.33 225.332C1389.83 225.632 1389.58 226.932 1389.58 229.232V247.832C1389.58 250.132 1389.83 251.482 1390.33 251.882C1390.83 252.282 1392.58 252.482 1395.58 252.482H1439.23C1445.03 252.482 1449.68 251.832 1453.18 250.532C1456.78 249.132 1459.13 247.782 1460.23 246.482L1457.23 259.982V264.632H1369.63ZM1516.27 266.132C1505.37 266.132 1495.72 265.632 1487.32 264.632C1478.92 263.632 1472.87 262.632 1469.17 261.632V258.632L1466.17 242.582C1467.57 244.182 1470.22 245.882 1474.12 247.682C1478.12 249.482 1483.42 251.032 1490.02 252.332C1496.62 253.532 1504.47 254.132 1513.57 254.132C1521.77 254.132 1527.97 253.582 1532.17 252.482C1536.47 251.282 1539.37 249.682 1540.87 247.682C1542.47 245.582 1543.27 243.182 1543.27 240.482C1543.27 237.282 1541.97 234.732 1539.37 232.832C1536.77 230.932 1532.87 229.432 1527.67 228.332C1522.57 227.132 1516.22 226.082 1508.62 225.182C1498.72 223.882 1490.77 222.182 1484.77 220.082C1478.77 217.882 1474.42 214.982 1471.72 211.382C1469.02 207.782 1467.67 203.232 1467.67 197.732C1467.67 193.032 1469.07 188.832 1471.87 185.132C1474.77 181.432 1479.12 178.532 1484.92 176.432C1490.72 174.232 1498.12 173.132 1507.12 173.132C1517.52 173.132 1526.57 173.632 1534.27 174.632C1541.97 175.632 1547.42 176.632 1550.62 177.632V180.632L1555.12 194.132C1553.02 192.832 1549.77 191.482 1545.37 190.082C1541.07 188.682 1535.87 187.532 1529.77 186.632C1523.67 185.632 1516.87 185.132 1509.37 185.132C1503.17 185.132 1498.22 185.582 1494.52 186.482C1490.92 187.382 1488.32 188.732 1486.72 190.532C1485.22 192.232 1484.47 194.332 1484.47 196.832C1484.47 200.132 1485.67 202.782 1488.07 204.782C1490.57 206.782 1494.17 208.332 1498.87 209.432C1503.67 210.532 1509.47 211.482 1516.27 212.282C1527.07 213.482 1535.67 215.182 1542.07 217.382C1548.47 219.582 1553.07 222.532 1555.87 226.232C1558.67 229.932 1560.07 234.732 1560.07 240.632C1560.07 244.532 1559.12 248.082 1557.22 251.282C1555.42 254.382 1552.67 257.082 1548.97 259.382C1545.27 261.582 1540.67 263.282 1535.17 264.482C1529.77 265.582 1523.47 266.132 1516.27 266.132Z" fill="#FFF8F3"/>
<path d="M189.991 392V389.169C192.458 389.073 194.297 388.879 195.507 388.589C196.716 388.298 197.515 387.718 197.902 386.847C198.289 385.976 198.483 384.669 198.483 382.927V349.685C198.483 347.944 198.289 346.661 197.902 345.839C197.515 344.968 196.716 344.363 195.507 344.024C194.297 343.685 192.458 343.492 189.991 343.444V340.613C191.007 340.661 192.507 340.71 194.491 340.758C196.474 340.758 198.845 340.758 201.603 340.758C204.216 340.758 206.612 340.734 208.789 340.685C210.966 340.637 212.515 340.613 213.434 340.613C218.612 340.613 222.628 341.653 225.483 343.734C228.386 345.815 229.837 348.742 229.837 352.516C229.837 355.565 228.797 358.153 226.716 360.282C224.636 362.363 221.733 363.839 218.007 364.71V364.782C223.184 365.315 227.103 366.669 229.765 368.847C232.474 371.024 233.829 373.952 233.829 377.629C233.829 382.081 232.16 385.589 228.821 388.153C225.483 390.718 220.886 392 215.031 392C214.257 392 213.216 391.976 211.91 391.927C210.652 391.879 209.152 391.855 207.41 391.855C205.716 391.806 203.805 391.782 201.676 391.782C198.87 391.782 196.45 391.806 194.418 391.855C192.434 391.855 190.958 391.903 189.991 392ZM211.837 389.024C216.579 389.024 220.112 388.056 222.434 386.121C224.805 384.185 225.991 381.258 225.991 377.339C225.991 373.758 224.878 371.097 222.652 369.355C220.474 367.565 217.16 366.669 212.708 366.669H204.289V363.984H211.184C214.862 363.984 217.62 363.089 219.458 361.298C221.345 359.46 222.289 356.823 222.289 353.387C222.289 349.952 221.418 347.435 219.676 345.839C217.983 344.194 215.321 343.395 211.692 343.444H205.813V383C205.813 384.694 205.958 385.976 206.249 386.847C206.539 387.718 207.12 388.298 207.991 388.589C208.862 388.879 210.144 389.024 211.837 389.024ZM295.304 393.016C290.32 393.016 285.989 391.976 282.312 389.895C278.635 387.766 275.78 384.742 273.748 380.823C271.715 376.855 270.699 372.137 270.699 366.669C270.699 361.25 271.739 356.508 273.82 352.444C275.901 348.379 278.78 345.234 282.457 343.008C286.183 340.734 290.489 339.597 295.377 339.597C300.312 339.597 304.618 340.661 308.296 342.79C312.022 344.871 314.877 347.871 316.86 351.79C318.893 355.71 319.909 360.427 319.909 365.944C319.909 371.363 318.868 376.105 316.788 380.169C314.756 384.234 311.877 387.403 308.151 389.677C304.473 391.903 300.191 393.016 295.304 393.016ZM295.522 390.331C298.86 390.331 301.764 389.315 304.231 387.282C306.748 385.25 308.683 382.419 310.038 378.79C311.393 375.161 312.07 370.952 312.07 366.161C312.07 361.274 311.32 357.065 309.82 353.532C308.368 349.952 306.36 347.194 303.796 345.258C301.231 343.274 298.352 342.282 295.159 342.282C291.82 342.282 288.893 343.298 286.377 345.331C283.909 347.363 281.973 350.194 280.57 353.823C279.215 357.452 278.538 361.661 278.538 366.452C278.538 371.29 279.288 375.5 280.788 379.081C282.288 382.661 284.32 385.444 286.885 387.427C289.449 389.363 292.328 390.331 295.522 390.331ZM382.333 393.016C377.349 393.016 373.019 391.976 369.341 389.895C365.664 387.766 362.809 384.742 360.777 380.823C358.745 376.855 357.728 372.137 357.728 366.669C357.728 361.25 358.769 356.508 360.849 352.444C362.93 348.379 365.809 345.234 369.486 343.008C373.212 340.734 377.519 339.597 382.406 339.597C387.341 339.597 391.648 340.661 395.325 342.79C399.051 344.871 401.906 347.871 403.89 351.79C405.922 355.71 406.938 360.427 406.938 365.944C406.938 371.363 405.898 376.105 403.817 380.169C401.785 384.234 398.906 387.403 395.18 389.677C391.503 391.903 387.22 393.016 382.333 393.016ZM382.551 390.331C385.89 390.331 388.793 389.315 391.261 387.282C393.777 385.25 395.712 382.419 397.067 378.79C398.422 375.161 399.099 370.952 399.099 366.161C399.099 361.274 398.349 357.065 396.849 353.532C395.398 349.952 393.39 347.194 390.825 345.258C388.261 343.274 385.382 342.282 382.188 342.282C378.849 342.282 375.922 343.298 373.406 345.331C370.938 347.363 369.003 350.194 367.599 353.823C366.245 357.452 365.567 361.661 365.567 366.452C365.567 371.29 366.317 375.5 367.817 379.081C369.317 382.661 371.349 385.444 373.914 387.427C376.478 389.363 379.357 390.331 382.551 390.331ZM474.29 392V389.169C477.048 389.024 478.814 388.613 479.588 387.935C480.363 387.21 480.29 386.024 479.371 384.379L474.508 375.669C473.298 373.492 472.113 371.798 470.951 370.589C469.838 369.379 468.532 368.556 467.032 368.121C465.58 367.637 463.742 367.395 461.516 367.395H456.726V364.565H461.516C463.016 364.565 464.298 364.419 465.363 364.129C466.476 363.839 467.492 363.355 468.411 362.677C469.33 361.952 470.274 361.008 471.242 359.847L477.411 352.661C478.863 350.919 479.709 349.395 479.951 348.089C480.193 346.734 479.855 345.645 478.935 344.823C478.016 344 476.516 343.516 474.435 343.371V340.613C476.371 340.661 478.161 340.71 479.806 340.758C481.451 340.806 483.218 340.831 485.105 340.831C486.943 340.831 488.613 340.806 490.113 340.758C491.661 340.71 493.016 340.661 494.177 340.613V343.371C492.532 343.71 491.105 344.145 489.895 344.677C488.685 345.21 487.548 345.935 486.484 346.855C485.419 347.726 484.258 348.911 483 350.411L470.371 365.218L469.79 363.403C471.532 363.742 473.032 364.274 474.29 365C475.548 365.726 476.734 366.742 477.847 368.048C478.959 369.355 480.097 371.073 481.258 373.202L486.701 382.927C487.524 384.379 488.322 385.54 489.097 386.411C489.871 387.234 490.766 387.863 491.782 388.298C492.798 388.685 494.056 388.976 495.556 389.169V392C494.056 391.952 492.677 391.927 491.419 391.927C490.209 391.879 489.072 391.855 488.008 391.855C486.992 391.806 485.927 391.782 484.814 391.782C483.266 391.782 481.718 391.806 480.169 391.855C478.669 391.855 476.709 391.903 474.29 392ZM443.08 392V389.169C445.548 389.073 447.387 388.879 448.597 388.589C449.806 388.25 450.605 387.645 450.992 386.774C451.379 385.903 451.572 384.621 451.572 382.927V349.685C451.572 347.944 451.379 346.661 450.992 345.839C450.605 344.968 449.806 344.363 448.597 344.024C447.387 343.685 445.548 343.492 443.08 343.444V340.613C444.29 340.661 445.911 340.71 447.943 340.758C450.024 340.806 452.468 340.831 455.274 340.831C457.838 340.831 460.064 340.806 461.951 340.758C463.838 340.71 465.338 340.661 466.451 340.613V343.444C464.274 343.492 462.653 343.685 461.588 344.024C460.524 344.363 459.798 344.968 459.411 345.839C459.072 346.661 458.903 347.944 458.903 349.685V382.927C458.903 384.621 459.072 385.903 459.411 386.774C459.798 387.645 460.524 388.25 461.588 388.589C462.653 388.879 464.274 389.073 466.451 389.169V392C465.338 391.903 463.838 391.855 461.951 391.855C460.064 391.806 457.838 391.782 455.274 391.782C452.468 391.782 450.024 391.806 447.943 391.855C445.911 391.855 444.29 391.903 443.08 392ZM550.696 393.016C547.938 393.016 545.567 392.726 543.583 392.145C541.648 391.565 540.051 390.984 538.793 390.403C537.535 389.823 536.543 389.532 535.817 389.532C535.188 389.532 534.68 389.798 534.293 390.331C533.954 390.863 533.688 391.637 533.494 392.653H530.591C530.688 391.589 530.76 390.282 530.809 388.734C530.857 387.185 530.881 385.202 530.881 382.782C530.93 380.363 530.954 377.339 530.954 373.71H533.857C534.244 378.79 535.841 382.806 538.648 385.758C541.454 388.661 545.107 390.113 549.607 390.113C552.849 390.113 555.438 389.29 557.373 387.645C559.357 385.952 560.349 383.677 560.349 380.823C560.349 379.032 559.914 377.46 559.043 376.105C558.22 374.702 556.865 373.419 554.978 372.258C553.14 371.097 550.672 369.96 547.575 368.847C543.849 367.492 540.801 366.04 538.43 364.492C536.107 362.944 534.39 361.226 533.277 359.339C532.212 357.403 531.68 355.226 531.68 352.806C531.68 350.097 532.285 347.75 533.494 345.766C534.752 343.782 536.519 342.258 538.793 341.194C541.067 340.129 543.728 339.597 546.777 339.597C549.293 339.597 551.398 339.887 553.091 340.468C554.785 341 556.188 341.556 557.301 342.137C558.414 342.718 559.357 343.008 560.131 343.008C560.712 343.008 561.196 342.766 561.583 342.282C561.97 341.75 562.26 340.976 562.454 339.96H565.357C565.26 341.024 565.188 342.234 565.14 343.589C565.091 344.895 565.043 346.54 564.994 348.524C564.994 350.508 564.994 353.048 564.994 356.145H562.019C561.631 351.984 560.156 348.669 557.591 346.202C555.027 343.685 551.809 342.427 547.938 342.427C544.89 342.427 542.519 343.177 540.825 344.677C539.18 346.129 538.357 348.137 538.357 350.702C538.357 352.395 538.793 353.919 539.664 355.274C540.535 356.581 541.962 357.839 543.946 359.048C545.978 360.21 548.688 361.419 552.075 362.677C557.591 364.71 561.559 366.984 563.978 369.5C566.398 372.016 567.607 375.113 567.607 378.79C567.607 383.145 566.083 386.605 563.035 389.169C559.986 391.734 555.873 393.016 550.696 393.016ZM636.918 392V389.169C639.096 389.073 640.717 388.879 641.781 388.589C642.846 388.25 643.547 387.669 643.886 386.847C644.225 385.976 644.394 384.669 644.394 382.927V349.685C644.394 347.944 644.225 346.661 643.886 345.839C643.596 344.968 642.918 344.363 641.854 344.024C640.789 343.685 639.144 343.492 636.918 343.444V340.613C638.08 340.661 639.628 340.71 641.564 340.758C643.499 340.806 645.652 340.831 648.023 340.831C650.781 340.831 653.201 340.806 655.281 340.758C657.41 340.71 659.08 340.661 660.289 340.613V343.444C657.773 343.492 655.91 343.685 654.701 344.024C653.491 344.363 652.693 344.968 652.305 345.839C651.918 346.661 651.725 347.944 651.725 349.685V382.927C651.725 384.669 651.918 385.976 652.305 386.847C652.693 387.669 653.491 388.25 654.701 388.589C655.91 388.879 657.773 389.073 660.289 389.169V392C659.08 391.903 657.41 391.855 655.281 391.855C653.201 391.806 650.781 391.782 648.023 391.782C645.652 391.782 643.499 391.806 641.564 391.855C639.628 391.855 638.08 391.903 636.918 392ZM603.604 392V389.169C606.12 389.073 607.959 388.879 609.12 388.589C610.33 388.25 611.128 387.669 611.515 386.847C611.902 385.976 612.096 384.669 612.096 382.927V349.685C612.096 347.944 611.902 346.661 611.515 345.839C611.128 344.968 610.33 344.363 609.12 344.024C607.959 343.685 606.12 343.492 603.604 343.444V340.613C604.814 340.661 606.459 340.71 608.539 340.758C610.668 340.806 613.088 340.831 615.797 340.831C618.217 340.831 620.394 340.806 622.33 340.758C624.265 340.71 625.814 340.661 626.975 340.613V343.444C624.797 343.492 623.152 343.685 622.039 344.024C620.975 344.363 620.273 344.968 619.935 345.839C619.596 346.661 619.426 347.944 619.426 349.685V382.927C619.426 384.621 619.596 385.903 619.935 386.774C620.273 387.645 620.975 388.25 622.039 388.589C623.152 388.879 624.797 389.073 626.975 389.169V392C625.814 391.903 624.265 391.855 622.33 391.855C620.394 391.806 618.217 391.782 615.797 391.782C613.039 391.782 610.62 391.806 608.539 391.855C606.459 391.855 604.814 391.903 603.604 392ZM616.668 367.54V364.782H647.152V367.54H616.668ZM695.994 392V389.169C698.462 389.073 700.301 388.879 701.511 388.589C702.72 388.298 703.519 387.718 703.906 386.847C704.293 385.976 704.486 384.669 704.486 382.927V349.685C704.486 347.944 704.293 346.661 703.906 345.839C703.519 344.968 702.72 344.363 701.511 344.024C700.301 343.685 698.462 343.492 695.994 343.444V340.613C698.559 340.661 701.898 340.71 706.011 340.758C710.172 340.806 715.035 340.831 720.599 340.831C722.341 340.831 724.083 340.831 725.825 340.831C727.615 340.831 729.309 340.806 730.906 340.758C732.551 340.71 734.051 340.661 735.406 340.613C735.406 342.984 735.503 345.355 735.696 347.726C735.938 350.048 736.228 352.371 736.567 354.694H733.664C732.986 351.839 732.188 349.613 731.269 348.016C730.398 346.371 729.261 345.234 727.857 344.605C726.454 343.976 724.64 343.661 722.414 343.661H711.817V383.073C711.817 384.718 711.962 385.976 712.253 386.847C712.543 387.718 713.124 388.298 713.994 388.589C714.914 388.831 716.269 388.952 718.059 388.952H721.107C724.204 388.952 726.696 388.565 728.583 387.79C730.47 386.968 732.019 385.492 733.228 383.363C734.486 381.234 735.672 378.21 736.785 374.29H739.688C739.301 377.194 739.011 380.121 738.817 383.073C738.624 385.976 738.527 388.952 738.527 392C736.253 391.903 733.64 391.855 730.688 391.855C727.785 391.806 724.398 391.782 720.527 391.782C715.011 391.782 710.172 391.806 706.011 391.855C701.898 391.855 698.559 391.903 695.994 392ZM709.494 367.54V364.782H722.269V367.54H709.494ZM725.39 376.831C725.148 374.46 724.761 372.621 724.228 371.315C723.696 369.96 722.898 368.992 721.833 368.411C720.769 367.831 719.341 367.54 717.551 367.54V364.782C720.019 364.782 721.809 364.081 722.922 362.677C724.083 361.226 724.833 358.831 725.172 355.492H727.712C727.519 358.347 727.422 360.524 727.422 362.024C727.47 363.524 727.494 364.903 727.494 366.161C727.494 367.226 727.494 368.266 727.494 369.282C727.543 370.25 727.591 371.339 727.64 372.548C727.736 373.71 727.833 375.137 727.93 376.831H725.39ZM776.168 392V389.169C778.684 389.073 780.547 388.879 781.757 388.589C782.967 388.25 783.741 387.645 784.08 386.774C784.467 385.903 784.66 384.621 784.66 382.927V349.685C784.66 347.895 784.467 346.589 784.08 345.766C783.693 344.944 782.894 344.363 781.684 344.024C780.475 343.685 778.636 343.492 776.168 343.444V340.613C777.523 340.661 779.241 340.71 781.322 340.758C783.402 340.806 785.773 340.831 788.434 340.831C791.773 340.831 794.701 340.806 797.217 340.758C799.733 340.71 801.693 340.661 803.096 340.613V343.444C799.854 343.492 797.434 343.685 795.838 344.024C794.241 344.315 793.201 344.895 792.717 345.766C792.233 346.589 791.991 347.895 791.991 349.685V383.073C791.991 384.718 792.136 385.976 792.426 386.847C792.717 387.669 793.297 388.226 794.168 388.516C795.039 388.806 796.394 388.952 798.233 388.952H801.281C803.555 388.952 805.491 388.734 807.088 388.298C808.733 387.863 810.112 387.113 811.225 386.048C812.386 384.984 813.426 383.508 814.346 381.621C815.265 379.685 816.136 377.242 816.959 374.29H819.862C819.475 377.29 819.184 380.242 818.991 383.145C818.797 386.048 818.701 389 818.701 392C816.572 391.903 814.055 391.855 811.152 391.855C808.297 391.806 804.862 391.782 800.846 391.782C795.378 391.782 790.563 391.806 786.402 391.855C782.241 391.855 778.83 391.903 776.168 392ZM853.266 392V389.169C855.734 389.073 857.572 388.879 858.782 388.589C859.992 388.25 860.79 387.669 861.177 386.847C861.564 385.976 861.758 384.669 861.758 382.927V349.685C861.758 347.944 861.564 346.661 861.177 345.839C860.79 344.968 859.992 344.363 858.782 344.024C857.572 343.685 855.734 343.492 853.266 343.444V340.613C858.395 340.758 866.572 340.831 877.798 340.831C879.589 340.831 881.355 340.831 883.097 340.831C884.887 340.831 886.58 340.806 888.177 340.758C889.822 340.71 891.322 340.661 892.677 340.613C892.677 343.323 892.774 345.984 892.968 348.597C893.21 351.161 893.548 353.653 893.984 356.073H891.08C890.355 352.831 889.532 350.315 888.613 348.524C887.693 346.734 886.532 345.476 885.129 344.75C883.726 344.024 881.911 343.661 879.685 343.661H869.089V382.927C869.089 384.718 869.33 386.048 869.814 386.919C870.298 387.742 871.339 388.298 872.935 388.589C874.532 388.879 876.951 389.073 880.193 389.169V392C878.79 391.952 876.83 391.903 874.314 391.855C871.798 391.806 868.871 391.782 865.532 391.782C862.871 391.782 860.5 391.806 858.419 391.855C856.339 391.855 854.621 391.903 853.266 392ZM866.766 368.266V365.435H880.484V368.266H866.766ZM882.661 378.935C882.419 376.226 882.032 374.097 881.5 372.548C880.968 371 880.169 369.911 879.105 369.282C878.04 368.605 876.613 368.266 874.822 368.266V365.435C877.29 365.435 879.08 364.734 880.193 363.331C881.355 361.927 882.105 359.556 882.443 356.218H884.984C884.79 359.024 884.693 361.202 884.693 362.75C884.742 364.25 884.766 365.629 884.766 366.887C884.766 367.903 884.766 368.944 884.766 370.008C884.814 371.024 884.863 372.234 884.911 373.637C885.008 375.04 885.105 376.806 885.201 378.935H882.661ZM975.03 392V389.169C977.497 389.073 979.336 388.879 980.546 388.589C981.755 388.25 982.554 387.645 982.941 386.774C983.328 385.903 983.522 384.621 983.522 382.927V349.685C983.522 347.944 983.328 346.661 982.941 345.839C982.554 344.968 981.755 344.363 980.546 344.024C979.336 343.685 977.497 343.492 975.03 343.444V340.613C976.094 340.661 977.594 340.71 979.53 340.758C981.465 340.758 983.812 340.758 986.57 340.758C987.876 340.758 989.134 340.758 990.344 340.758C991.554 340.758 992.667 340.758 993.683 340.758C994.747 340.71 995.691 340.685 996.514 340.685C997.336 340.637 997.989 340.613 998.473 340.613C1004.33 340.613 1008.9 341.774 1012.19 344.097C1015.48 346.419 1017.13 349.613 1017.13 353.677C1017.13 356.484 1016.28 358.952 1014.59 361.081C1012.89 363.161 1010.52 364.782 1007.47 365.944C1004.47 367.105 1000.94 367.685 996.876 367.685H987.514V365.508H996.586C1000.94 365.508 1004.16 364.613 1006.24 362.823C1008.32 360.984 1009.36 358.202 1009.36 354.476C1009.36 350.75 1008.32 347.992 1006.24 346.202C1004.16 344.363 1000.99 343.444 996.731 343.444H990.852V382.927C990.852 384.621 991.046 385.903 991.433 386.774C991.868 387.645 992.691 388.25 993.901 388.589C995.11 388.879 996.949 389.073 999.417 389.169V392C997.191 391.855 993.126 391.782 987.223 391.782C981.417 391.782 977.352 391.855 975.03 392ZM1017.34 393.016C1015.07 393.016 1013.23 392.387 1011.83 391.129C1010.47 389.823 1009.48 387.766 1008.85 384.96L1006.89 376.613C1006.41 374.435 1005.78 372.766 1005.01 371.605C1004.23 370.395 1003.22 369.548 1001.96 369.065C1000.75 368.532 999.102 368.266 997.022 368.266H987.949V366.379H996.296C1000.46 366.379 1003.75 366.718 1006.17 367.395C1008.59 368.024 1010.42 369.185 1011.68 370.879C1012.99 372.524 1014.01 374.895 1014.73 377.992L1016.18 383.653C1016.62 385.492 1017.15 386.798 1017.78 387.573C1018.41 388.298 1019.28 388.661 1020.39 388.661C1021.02 388.661 1021.6 388.516 1022.13 388.226C1022.72 387.887 1023.34 387.331 1024.02 386.556L1025.62 388.444C1024.46 390.04 1023.22 391.202 1021.92 391.927C1020.61 392.653 1019.09 393.016 1017.34 393.016ZM1056.61 392V389.169C1059.08 389.073 1060.92 388.879 1062.13 388.589C1063.34 388.298 1064.13 387.718 1064.52 386.847C1064.91 385.976 1065.1 384.669 1065.1 382.927V349.685C1065.1 347.944 1064.91 346.661 1064.52 345.839C1064.13 344.968 1063.34 344.363 1062.13 344.024C1060.92 343.685 1059.08 343.492 1056.61 343.444V340.613C1059.17 340.661 1062.51 340.71 1066.63 340.758C1070.79 340.806 1075.65 340.831 1081.21 340.831C1082.96 340.831 1084.7 340.831 1086.44 340.831C1088.23 340.831 1089.92 340.806 1091.52 340.758C1093.17 340.71 1094.67 340.661 1096.02 340.613C1096.02 342.984 1096.12 345.355 1096.31 347.726C1096.55 350.048 1096.84 352.371 1097.18 354.694H1094.28C1093.6 351.839 1092.8 349.613 1091.88 348.016C1091.01 346.371 1089.88 345.234 1088.47 344.605C1087.07 343.976 1085.25 343.661 1083.03 343.661H1072.43V383.073C1072.43 384.718 1072.58 385.976 1072.87 386.847C1073.16 387.718 1073.74 388.298 1074.61 388.589C1075.53 388.831 1076.88 388.952 1078.67 388.952H1081.72C1084.82 388.952 1087.31 388.565 1089.2 387.79C1091.09 386.968 1092.63 385.492 1093.84 383.363C1095.1 381.234 1096.29 378.21 1097.4 374.29H1100.3C1099.92 377.194 1099.63 380.121 1099.43 383.073C1099.24 385.976 1099.14 388.952 1099.14 392C1096.87 391.903 1094.25 391.855 1091.3 391.855C1088.4 391.806 1085.01 391.782 1081.14 391.782C1075.63 391.782 1070.79 391.806 1066.63 391.855C1062.51 391.855 1059.17 391.903 1056.61 392ZM1070.11 367.54V364.782H1082.88V367.54H1070.11ZM1086 376.831C1085.76 374.46 1085.38 372.621 1084.84 371.315C1084.31 369.96 1083.51 368.992 1082.45 368.411C1081.38 367.831 1079.96 367.54 1078.17 367.54V364.782C1080.63 364.782 1082.42 364.081 1083.54 362.677C1084.7 361.226 1085.45 358.831 1085.79 355.492H1088.33C1088.13 358.347 1088.04 360.524 1088.04 362.024C1088.09 363.524 1088.11 364.903 1088.11 366.161C1088.11 367.226 1088.11 368.266 1088.11 369.282C1088.16 370.25 1088.21 371.339 1088.25 372.548C1088.35 373.71 1088.45 375.137 1088.55 376.831H1086ZM1158.45 392.508L1140.82 349.468C1139.9 347.242 1138.76 345.694 1137.41 344.823C1136.1 343.952 1134.14 343.492 1131.53 343.444V340.613C1132.78 340.661 1134.38 340.71 1136.32 340.758C1138.25 340.806 1140.45 340.831 1142.92 340.831C1145.78 340.831 1148.24 340.806 1150.32 340.758C1152.45 340.71 1154.12 340.661 1155.33 340.613V343.444C1152.87 343.492 1151.03 343.71 1149.82 344.097C1148.66 344.435 1148 345.04 1147.86 345.911C1147.76 346.734 1148.03 347.968 1148.66 349.613L1162.66 383.726L1161.14 384.96L1173.62 354.476C1174.69 351.863 1175.17 349.782 1175.07 348.234C1175.03 346.637 1174.35 345.476 1173.04 344.75C1171.74 343.976 1169.73 343.54 1167.02 343.444V340.613C1168.32 340.661 1169.63 340.71 1170.94 340.758C1172.29 340.758 1173.6 340.782 1174.86 340.831C1176.16 340.831 1177.45 340.831 1178.7 340.831C1180.2 340.831 1181.66 340.806 1183.06 340.758C1184.46 340.71 1185.94 340.661 1187.49 340.613V343.444C1185.84 343.54 1184.44 343.879 1183.28 344.46C1182.12 345.04 1181.1 345.935 1180.23 347.145C1179.36 348.355 1178.51 349.976 1177.69 352.008L1161.07 392.508H1158.45ZM1218.72 392V389.169C1221.18 389.073 1223.02 388.879 1224.23 388.589C1225.44 388.25 1226.24 387.669 1226.63 386.847C1227.01 385.976 1227.21 384.669 1227.21 382.927V349.685C1227.21 347.944 1227.01 346.661 1226.63 345.839C1226.24 344.968 1225.44 344.363 1224.23 344.024C1223.02 343.685 1221.18 343.492 1218.72 343.444V340.613C1219.97 340.661 1221.64 340.71 1223.72 340.758C1225.8 340.806 1228.2 340.831 1230.91 340.831C1233.47 340.831 1235.82 340.806 1237.95 340.758C1240.08 340.71 1241.8 340.661 1243.1 340.613V343.444C1240.63 343.492 1238.8 343.685 1237.59 344.024C1236.38 344.363 1235.55 344.968 1235.12 345.839C1234.73 346.661 1234.54 347.944 1234.54 349.685V382.927C1234.54 384.669 1234.73 385.976 1235.12 386.847C1235.55 387.669 1236.38 388.25 1237.59 388.589C1238.8 388.879 1240.63 389.073 1243.1 389.169V392C1241.8 391.952 1240.08 391.903 1237.95 391.855C1235.82 391.806 1233.47 391.782 1230.91 391.782C1228.2 391.782 1225.8 391.806 1223.72 391.855C1221.64 391.903 1219.97 391.952 1218.72 392ZM1278.85 392V389.169C1281.32 389.073 1283.16 388.879 1284.37 388.589C1285.58 388.298 1286.37 387.718 1286.76 386.847C1287.15 385.976 1287.34 384.669 1287.34 382.927V349.685C1287.34 347.944 1287.15 346.661 1286.76 345.839C1286.37 344.968 1285.58 344.363 1284.37 344.024C1283.16 343.685 1281.32 343.492 1278.85 343.444V340.613C1281.41 340.661 1284.75 340.71 1288.87 340.758C1293.03 340.806 1297.89 340.831 1303.45 340.831C1305.2 340.831 1306.94 340.831 1308.68 340.831C1310.47 340.831 1312.16 340.806 1313.76 340.758C1315.41 340.71 1316.91 340.661 1318.26 340.613C1318.26 342.984 1318.36 345.355 1318.55 347.726C1318.79 350.048 1319.08 352.371 1319.42 354.694H1316.52C1315.84 351.839 1315.04 349.613 1314.12 348.016C1313.25 346.371 1312.12 345.234 1310.71 344.605C1309.31 343.976 1307.5 343.661 1305.27 343.661H1294.67V383.073C1294.67 384.718 1294.82 385.976 1295.11 386.847C1295.4 387.718 1295.98 388.298 1296.85 388.589C1297.77 388.831 1299.12 388.952 1300.91 388.952H1303.96C1307.06 388.952 1309.55 388.565 1311.44 387.79C1313.33 386.968 1314.87 385.492 1316.08 383.363C1317.34 381.234 1318.53 378.21 1319.64 374.29H1322.54C1322.16 377.194 1321.87 380.121 1321.67 383.073C1321.48 385.976 1321.38 388.952 1321.38 392C1319.11 391.903 1316.5 391.855 1313.54 391.855C1310.64 391.806 1307.25 391.782 1303.38 391.782C1297.87 391.782 1293.03 391.806 1288.87 391.855C1284.75 391.855 1281.41 391.903 1278.85 392ZM1292.35 367.54V364.782H1305.12V367.54H1292.35ZM1308.25 376.831C1308 374.46 1307.62 372.621 1307.08 371.315C1306.55 369.96 1305.75 368.992 1304.69 368.411C1303.62 367.831 1302.2 367.54 1300.41 367.54V364.782C1302.87 364.782 1304.66 364.081 1305.78 362.677C1306.94 361.226 1307.69 358.831 1308.03 355.492H1310.57C1310.37 358.347 1310.28 360.524 1310.28 362.024C1310.33 363.524 1310.35 364.903 1310.35 366.161C1310.35 367.226 1310.35 368.266 1310.35 369.282C1310.4 370.25 1310.45 371.339 1310.5 372.548C1310.59 373.71 1310.69 375.137 1310.79 376.831H1308.25ZM1405.32 392.508L1390 349.468C1389.18 347.194 1388.21 345.645 1387.1 344.823C1385.99 343.952 1384.34 343.492 1382.17 343.444V340.613C1383.28 340.661 1384.71 340.71 1386.45 340.758C1388.24 340.806 1390.22 340.831 1392.4 340.831C1394.24 340.831 1395.88 340.831 1397.33 340.831C1398.83 340.782 1400.14 340.758 1401.25 340.758C1402.42 340.71 1403.38 340.661 1404.16 340.613V343.444C1401.74 343.492 1399.97 343.685 1398.86 344.024C1397.75 344.363 1397.12 344.968 1396.97 345.839C1396.87 346.661 1397.12 347.919 1397.7 349.613L1409.31 382.202L1408.22 382.855L1417.73 354.476C1418.6 351.815 1418.99 349.71 1418.89 348.161C1418.79 346.565 1418.12 345.403 1416.86 344.677C1415.6 343.952 1413.62 343.54 1410.91 343.444V340.613C1412.26 340.661 1413.59 340.71 1414.9 340.758C1416.21 340.758 1417.51 340.782 1418.82 340.831C1420.17 340.831 1421.5 340.831 1422.81 340.831C1424.21 340.831 1425.62 340.806 1427.02 340.758C1428.42 340.71 1429.85 340.661 1431.3 340.613V343.444C1429.61 343.54 1428.16 343.879 1426.95 344.46C1425.74 345.04 1424.7 345.935 1423.83 347.145C1423 348.355 1422.23 349.976 1421.5 352.008L1407.93 392.508H1405.32ZM1378.32 392.508L1362.93 349.468C1362.16 347.194 1361.07 345.645 1359.67 344.823C1358.31 343.952 1356.35 343.492 1353.79 343.444V340.613C1355 340.661 1356.57 340.71 1358.5 340.758C1360.49 340.806 1362.69 340.831 1365.11 340.831C1366.95 340.831 1368.59 340.831 1370.04 340.831C1371.54 340.782 1372.87 340.758 1374.04 340.758C1375.2 340.71 1376.14 340.661 1376.87 340.613V343.444C1374.59 343.492 1372.9 343.685 1371.79 344.024C1370.67 344.363 1370.07 344.968 1369.97 345.839C1369.87 346.661 1370.12 347.919 1370.7 349.613L1382.6 383.145L1380.86 384.161L1392.47 350.266L1394.07 354.258L1380.93 392.508H1378.32ZM1482.99 393.016C1480.23 393.016 1477.86 392.726 1475.87 392.145C1473.94 391.565 1472.34 390.984 1471.08 390.403C1469.83 389.823 1468.83 389.532 1468.11 389.532C1467.48 389.532 1466.97 389.798 1466.58 390.331C1466.25 390.863 1465.98 391.637 1465.79 392.653H1462.88C1462.98 391.589 1463.05 390.282 1463.1 388.734C1463.15 387.185 1463.17 385.202 1463.17 382.782C1463.22 380.363 1463.25 377.339 1463.25 373.71H1466.15C1466.54 378.79 1468.13 382.806 1470.94 385.758C1473.75 388.661 1477.4 390.113 1481.9 390.113C1485.14 390.113 1487.73 389.29 1489.66 387.645C1491.65 385.952 1492.64 383.677 1492.64 380.823C1492.64 379.032 1492.2 377.46 1491.33 376.105C1490.51 374.702 1489.16 373.419 1487.27 372.258C1485.43 371.097 1482.96 369.96 1479.87 368.847C1476.14 367.492 1473.09 366.04 1470.72 364.492C1468.4 362.944 1466.68 361.226 1465.57 359.339C1464.5 357.403 1463.97 355.226 1463.97 352.806C1463.97 350.097 1464.58 347.75 1465.79 345.766C1467.04 343.782 1468.81 342.258 1471.08 341.194C1473.36 340.129 1476.02 339.597 1479.07 339.597C1481.58 339.597 1483.69 339.887 1485.38 340.468C1487.08 341 1488.48 341.556 1489.59 342.137C1490.7 342.718 1491.65 343.008 1492.42 343.008C1493 343.008 1493.49 342.766 1493.87 342.282C1494.26 341.75 1494.55 340.976 1494.75 339.96H1497.65C1497.55 341.024 1497.48 342.234 1497.43 343.589C1497.38 344.895 1497.33 346.54 1497.29 348.524C1497.29 350.508 1497.29 353.048 1497.29 356.145H1494.31C1493.92 351.984 1492.45 348.669 1489.88 346.202C1487.32 343.685 1484.1 342.427 1480.23 342.427C1477.18 342.427 1474.81 343.177 1473.12 344.677C1471.47 346.129 1470.65 348.137 1470.65 350.702C1470.65 352.395 1471.08 353.919 1471.95 355.274C1472.83 356.581 1474.25 357.839 1476.24 359.048C1478.27 360.21 1480.98 361.419 1484.37 362.677C1489.88 364.71 1493.85 366.984 1496.27 369.5C1498.69 372.016 1499.9 375.113 1499.9 378.79C1499.9 383.145 1498.37 386.605 1495.33 389.169C1492.28 391.734 1488.16 393.016 1482.99 393.016Z" fill="#FFF8F3"/>
</svg>
