<svg width="1174" height="1173" viewBox="0 0 1174 1173" fill="none" xmlns="http://www.w3.org/2000/svg">
<path d="M728.972 415.769C731.166 415.782 732.935 417.57 732.923 419.764C732.911 421.958 731.122 423.727 728.928 423.716C728.451 423.713 728.225 423.756 728.093 423.795C728.009 423.82 727.88 423.867 727.682 423.993L727.46 424.148C726.598 424.798 725.776 425.537 724.821 426.408C724.021 427.137 723.108 427.977 722.116 428.781L721.686 429.123C699.31 446.567 674.043 455.827 645.329 454.708L643.958 454.647C627.569 453.823 612.788 448.497 599.48 439.254L598.197 438.346C595.763 436.598 593.62 434.642 591.65 432.755C589.87 431.049 588.314 429.484 586.662 427.969L585.947 427.324C585.82 427.211 585.701 427.109 585.593 427.013L585.263 427.349C582.363 430.363 579.264 433.196 575.976 435.792L575.316 436.308C562.181 446.472 547.403 452.668 530.703 454.322L529.081 454.468C519.165 455.269 509.368 454.819 499.624 452.86L498.682 452.666C487.758 450.359 477.235 446.735 467.322 441.265L466.365 440.73C458.088 436.046 450.479 430.527 443.465 424.2L442.071 422.924L441.924 422.781C440.458 421.275 440.416 418.866 441.862 417.308C443.308 415.75 445.713 415.613 447.324 416.964L447.477 417.099L448.789 418.299C455.382 424.247 462.52 429.423 470.279 433.814L471.16 434.306C480.281 439.339 490.042 442.72 500.324 444.89L501.19 445.069C510.143 446.869 519.193 447.295 528.44 446.548L529.911 446.415C545.048 444.917 558.429 439.327 570.453 430.023L571.648 429.08C574.417 426.85 577.049 424.424 579.537 421.839L580.124 421.242C580.72 420.653 581.339 420.097 581.977 419.653C582.865 419.036 584.135 418.394 585.734 418.447C587.279 418.499 588.454 419.183 589.183 419.693C589.89 420.188 590.623 420.848 591.23 421.387L592.003 422.087C593.802 423.734 595.548 425.483 597.148 427.016C599.041 428.83 600.862 430.477 602.833 431.893L604.007 432.723C616.174 441.176 629.54 445.966 644.358 446.711L645.629 446.767C672.277 447.807 695.739 439.276 716.8 422.856L717.446 422.333C718.089 421.793 718.735 421.203 719.467 420.535C720.403 419.682 721.48 418.704 722.68 417.801L723.082 417.51C725.083 416.131 726.997 415.758 728.972 415.769ZM441.689 400.129C442.117 397.977 444.208 396.578 446.36 397.006C448.247 397.381 449.554 399.035 449.559 400.888C449.596 400.925 449.637 400.965 449.683 401.01L450.626 401.904C455.373 406.342 460.532 410.257 466.085 413.637L467.082 414.237C477.402 420.374 488.441 424.68 500.213 426.809L501.13 426.971C510.605 428.606 520.074 429.01 529.586 427.726L530.81 427.556C536.909 426.681 542.692 425.443 548.11 423.267L549.217 422.811C560.607 418.016 570.257 410.5 578.974 401.384L579.249 401.1C580.663 399.671 582.636 398.085 585.217 397.962C588.147 397.822 590.306 399.6 591.777 401.184L592.837 402.311C595.329 404.92 597.936 407.393 600.679 409.762L601.534 410.49C610.399 417.936 620.457 423.158 631.626 426.047L632.88 426.36C645.849 429.487 659.038 429.179 672.316 426.351L674.114 425.953C692.614 421.703 708.682 413.172 722.069 399.716L724.885 402.518L727.703 405.32C712.948 420.151 695.185 429.432 674.937 433.914L673.971 434.123C659.745 437.153 645.336 437.537 631.022 434.086L629.637 433.74C617.299 430.55 606.18 424.77 596.425 416.577L595.485 415.776C592.554 413.245 589.762 410.596 587.091 407.8L585.955 406.593C585.774 406.398 585.62 406.251 585.496 406.138C585.383 406.232 585.249 406.348 585.097 406.494L584.717 406.876C575.491 416.525 564.973 424.8 552.303 430.135L551.071 430.641C544.831 433.147 538.349 434.503 531.932 435.423L530.65 435.601C520.21 437.011 509.917 436.552 499.779 434.802L498.798 434.63C486.015 432.317 474.087 427.648 463.021 421.068L461.954 420.426C455.936 416.762 450.343 412.518 445.2 407.709L444.177 406.739C443.326 405.921 440.978 403.711 441.689 400.129ZM709.618 230.828C709.906 228.53 712.002 226.9 714.3 227.188C716.599 227.476 718.229 229.573 717.941 231.871C717.911 232.113 717.904 232.441 717.93 232.976C717.949 233.353 718.016 234.279 718.033 234.927C718.059 235.98 718.01 237.342 717.531 238.796C718.3 240.329 718.68 241.867 718.89 243.256C719.142 244.916 719.196 246.864 719.281 247.995L719.451 250.395C719.827 256.007 720.076 261.699 720.409 267.157L720.806 273.512C721.213 279.906 721.639 286.389 722.021 292.729L722.255 296.63C722.487 300.545 722.704 304.501 722.826 308.462L722.872 309.778C722.99 312.852 723.187 315.937 723.396 319.076C723.633 322.641 723.887 326.286 724.039 329.942L724.132 331.978C724.374 336.713 724.752 341.349 725.036 346.296L725.12 347.661C725.564 354.538 726.385 362.141 726.544 369.323L726.571 370.237C726.646 372.368 726.813 374.504 726.968 376.801C727.142 379.37 727.296 382.091 727.223 384.866C727.157 387.398 726.083 389.108 724.899 390.395L724.661 390.647C718.869 396.621 712.089 401.059 705.232 404.885L703.86 405.642C690.777 412.787 676.8 417.085 661.847 418.204L660.397 418.302C645.086 419.234 630.573 416.436 616.917 409.352L615.599 408.653C606.11 403.517 598.007 396.811 590.478 389.746L588.98 388.329C588.471 387.844 587.992 387.342 587.593 386.926C587.171 386.485 586.825 386.127 586.479 385.799C586.082 385.422 585.75 385.152 585.455 384.956C584.967 385.286 584.5 385.647 584.048 386.047L583.64 386.422C578.178 391.631 572.473 397.256 565.943 401.981L565.308 402.435C546.35 415.871 525.359 420.971 502.331 417.401L501.232 417.225C493.63 415.96 486.22 414.025 479.045 411.221L477.614 410.649C466.796 406.226 456.321 400.59 447.501 392.09L446.653 391.259C444.403 389.015 443.267 386.312 443.578 383.015L443.665 382.044C443.857 379.773 443.982 377.478 444.102 375.122C444.238 372.455 444.368 369.689 444.585 366.927L444.694 365.453C444.932 362.009 445.065 358.537 445.2 354.992C445.353 350.968 445.508 346.845 445.826 342.722L445.899 341.623C445.961 340.517 445.994 339.389 446.037 338.178C446.091 336.605 446.16 334.91 446.336 333.195L446.484 331.688C447.192 324.163 447.421 316.698 447.9 308.872L448.064 306.078C448.438 299.532 448.75 292.807 449.297 286.179L449.555 282.943C450.133 275.391 450.557 267.824 450.88 260.237L451.017 257.37C451.167 254.505 451.355 251.647 451.564 248.813L451.604 248.106C451.615 247.857 451.623 247.591 451.633 247.296C451.652 246.736 451.676 246.072 451.731 245.392C451.841 244.027 452.094 242.354 452.861 240.654L453.068 240.163C453.468 239.127 453.566 238.285 453.438 237.517L453.405 237.342L453.365 237.13C453.01 234.939 454.433 232.833 456.626 232.362C458.82 231.892 460.982 233.231 461.556 235.374L461.607 235.584L461.625 235.687C464.175 236.368 466.333 237.629 468.123 238.843L468.914 239.373C477.115 244.812 486.002 248.842 495.523 251.83L496.344 252.083C504.837 254.641 513.493 255.58 522.113 254.715L522.757 254.646C536.254 253.132 547.666 246.826 557.323 236.911L557.828 236.382C558.331 235.842 558.836 235.272 559.369 234.664C560.06 233.875 560.82 232.997 561.607 232.149L562.079 231.649C562.56 231.15 563.072 230.657 563.605 230.24C564.346 229.66 565.337 229.059 566.609 228.83C569.068 228.387 571.201 229.632 572.432 230.334L572.849 230.585C573.809 231.191 574.657 231.918 575.118 232.286L575.333 232.451C576.432 233.257 577.806 233.751 579.753 234.26C581.331 234.672 583.585 235.146 585.744 235.997C585.858 235.942 585.984 235.884 586.13 235.813C586.336 235.714 586.584 235.594 586.839 235.477C587.326 235.256 588.022 234.961 588.796 234.777L589.45 234.617C592.678 233.799 595.276 232.72 597.402 230.838L597.663 230.615C598.263 230.12 598.969 229.657 599.762 229.288C599.914 229.062 600.09 228.848 600.291 228.648C601.88 227.064 604.422 227.019 606.066 228.51L606.222 228.658L607.493 229.952C608.752 231.251 609.98 232.562 611.175 233.836C612.786 235.551 614.346 237.207 615.95 238.793C619.152 241.96 622.402 244.723 626.146 246.813L626.952 247.258C635.284 251.79 643.802 254.557 653.146 254.666L654.456 254.67C667.963 254.582 680.466 250.696 692.614 244.343L694.051 243.584C697.382 241.806 700.556 239.973 703.555 237.893L704.066 237.553C705.802 236.445 707.69 235.709 709.647 235.31C709.647 235.256 709.649 235.198 709.648 235.137C709.633 234.556 709.594 234.245 709.552 233.39C709.518 232.694 709.497 231.795 709.618 230.828ZM567.806 237.158L567.429 237.556C566.742 238.296 566.083 239.058 565.346 239.899C564.808 240.513 564.236 241.162 563.631 241.809L563.015 242.456C552.29 253.467 539.25 260.79 523.651 262.542L522.907 262.622C513.173 263.599 503.469 262.528 494.053 259.692L493.143 259.412C483.015 256.233 473.431 251.904 464.523 245.997L463.664 245.42C462.582 244.686 461.603 244.122 460.666 243.736L460.506 244.104C460.3 244.56 460.166 245.155 460.092 246.069C460.055 246.529 460.037 247.009 460.017 247.584C460.008 247.855 459.997 248.154 459.984 248.467L459.929 249.43C459.723 252.222 459.54 255.018 459.394 257.807L459.261 260.594C458.935 268.255 458.505 275.918 457.918 283.584L457.657 286.869C457.117 293.404 456.821 299.882 456.441 306.526L456.272 309.385C455.814 316.87 455.562 324.742 454.833 332.503L454.68 334.053C454.536 335.458 454.474 336.9 454.419 338.47C454.379 339.618 454.343 340.852 454.272 342.108L454.189 343.368C453.886 347.299 453.736 351.256 453.582 355.31C453.448 358.833 453.311 362.43 453.062 366.037L452.948 367.584C452.742 370.203 452.618 372.829 452.479 375.55C452.359 377.907 452.228 380.324 452.022 382.758L451.928 383.802C451.889 384.22 451.944 384.416 451.986 384.525C452.034 384.651 452.163 384.907 452.576 385.318L453.322 386.05C461.083 393.53 470.489 398.674 480.789 402.885L482.098 403.409C488.664 405.975 495.504 407.768 502.61 408.951L503.604 409.111C524.455 412.346 543.255 407.784 560.458 395.592L561.608 394.76C567.316 390.545 572.399 385.552 577.85 380.352L578.172 380.051C579.12 379.181 580.12 378.408 581.181 377.726C581.173 374.502 581.177 371.273 581.177 368.068V242.836C580.196 242.556 579.093 242.3 577.745 241.948C575.622 241.393 573.018 240.606 570.631 238.856L570.157 238.493C569.387 237.878 569.021 237.565 568.655 237.333L568.497 237.237C568.308 237.13 568.144 237.04 567.999 236.963C567.939 237.023 567.874 237.088 567.806 237.158ZM602.537 236.902C599.099 239.897 595.165 241.368 591.392 242.322L590.63 242.509C590.637 242.507 590.6 242.516 590.507 242.551C590.414 242.586 590.293 242.637 590.133 242.71C589.971 242.783 589.799 242.866 589.589 242.968C589.582 242.971 589.574 242.975 589.566 242.978V368.068C589.566 371.271 589.561 374.452 589.569 377.636C590.651 378.279 591.532 379.029 592.252 379.713C592.766 380.2 593.247 380.702 593.649 381.122C594.074 381.566 594.42 381.925 594.767 382.257L596.223 383.635C603.515 390.476 611.009 396.631 619.591 401.276L620.772 401.902C633 408.247 645.991 410.775 659.887 409.929L661.217 409.84C674.927 408.814 687.753 404.88 699.839 398.28L701.153 397.555C707.684 393.911 713.659 389.946 718.638 384.809L718.792 384.642C718.811 384.621 718.826 384.601 718.839 384.585C718.897 382.249 718.77 379.881 718.6 377.366C718.453 375.194 718.271 372.862 718.188 370.515L718.159 369.51C718 362.379 717.229 355.701 716.752 348.273L716.662 346.777C716.395 342.14 716.001 337.192 715.753 332.355L715.658 330.291C715.511 326.763 715.267 323.238 715.027 319.633C714.818 316.497 714.613 313.308 714.49 310.097L714.442 308.719C714.323 304.871 714.113 301.021 713.882 297.134L713.648 293.233C713.26 286.787 712.844 280.487 712.438 274.097L712.037 267.668C711.69 261.982 711.454 256.518 711.083 250.992L710.916 248.619C710.782 246.818 710.787 245.768 710.597 244.511C710.556 244.238 710.507 243.987 710.453 243.755C709.777 243.967 709.15 244.259 708.575 244.627L708.335 244.786C704.97 247.12 701.48 249.127 697.995 250.986L696.501 251.775C683.484 258.584 669.668 262.957 654.518 263.057L653.047 263.053C642.006 262.925 632.15 259.633 622.946 254.627L622.057 254.136C617.378 251.524 613.513 248.18 610.051 244.757C608.323 243.047 606.663 241.284 605.06 239.577C604.207 238.669 603.371 237.778 602.537 236.902ZM722.069 399.716C723.616 398.16 726.132 398.153 727.688 399.701C729.244 401.249 729.25 403.764 727.703 405.32L722.069 399.716Z" fill="#FFF8F3"/>
<path d="M73.7074 626.845C74.4074 626.845 75.0574 626.145 75.6574 624.745C76.3574 623.345 76.7074 621.045 76.7074 617.845V545.845C76.7074 542.645 76.3574 540.395 75.6574 539.095C74.9574 537.695 74.2574 536.945 73.5574 536.845H122.757C131.857 536.845 139.007 538.095 144.207 540.595C149.507 542.995 153.257 546.445 155.457 550.945C157.657 555.345 158.757 560.495 158.757 566.395C158.757 572.595 157.607 577.995 155.307 582.595C153.107 587.095 149.357 590.595 144.057 593.095C138.857 595.495 131.757 596.695 122.757 596.695H93.5074V617.845C93.5074 621.045 93.8574 623.345 94.5574 624.745C95.2574 626.145 95.9574 626.845 96.6574 626.845H73.7074ZM99.6574 584.845H119.607C126.107 584.845 130.957 584.045 134.157 582.445C137.357 580.845 139.457 578.645 140.457 575.845C141.557 573.045 142.107 569.895 142.107 566.395C142.107 562.695 141.457 559.545 140.157 556.945C138.857 554.345 136.557 552.395 133.257 551.095C130.057 549.695 125.507 548.995 119.607 548.995H99.6574C96.5574 548.995 94.7574 549.195 94.2574 549.595C93.7574 549.895 93.5074 551.045 93.5074 553.045V580.645C93.5074 582.645 93.7574 583.845 94.2574 584.245C94.7574 584.645 96.5574 584.845 99.6574 584.845ZM170.02 626.845C170.72 626.845 171.42 626.145 172.12 624.745C172.82 623.345 173.17 621.045 173.17 617.845V545.845C173.17 542.645 172.82 540.395 172.12 539.095C171.42 537.695 170.72 536.945 170.02 536.845H254.47V539.845L257.47 554.245C254.97 553.145 250.57 551.995 244.27 550.795C237.97 549.495 230.37 548.845 221.47 548.845H196.12C193.12 548.845 191.32 549.095 190.72 549.595C190.22 549.995 189.97 551.245 189.97 553.345V570.445C189.97 572.645 190.22 573.945 190.72 574.345C191.32 574.745 193.07 574.945 195.97 574.945H220.72C226.52 574.945 231.17 574.645 234.67 574.045C238.27 573.345 240.62 572.645 241.72 571.945C241.32 573.245 240.87 574.795 240.37 576.595C239.87 578.395 239.47 580.195 239.17 581.995C238.87 583.795 238.72 585.445 238.72 586.945H195.97C193.07 586.945 191.32 587.145 190.72 587.545C190.22 587.845 189.97 589.145 189.97 591.445V610.045C189.97 612.345 190.22 613.695 190.72 614.095C191.22 614.495 192.97 614.695 195.97 614.695H239.62C245.42 614.695 250.07 614.045 253.57 612.745C257.17 611.345 259.52 609.995 260.62 608.695L257.62 622.195V626.845H170.02ZM261.759 626.845C262.159 626.845 262.859 626.145 263.859 624.745C264.859 623.345 266.159 620.995 267.759 617.695C268.459 616.195 269.659 613.645 271.359 610.045C273.059 606.445 275.059 602.195 277.359 597.295C279.659 592.395 282.059 587.295 284.559 581.995C287.059 576.595 289.409 571.445 291.609 566.545C293.909 561.645 295.909 557.345 297.609 553.645C299.309 549.945 300.509 547.345 301.209 545.845C302.609 542.645 303.359 540.345 303.459 538.945C303.559 537.545 303.359 536.845 302.859 536.845H329.109C328.709 536.845 328.559 537.545 328.659 538.945C328.759 540.345 329.459 542.645 330.759 545.845C331.459 547.345 332.609 549.945 334.209 553.645C335.809 557.245 337.709 561.495 339.909 566.395C342.209 571.295 344.559 576.395 346.959 581.695C349.359 586.895 351.709 591.945 354.009 596.845C356.309 601.745 358.309 606.045 360.009 609.745C361.709 613.445 362.959 616.095 363.759 617.695C365.359 620.995 366.809 623.345 368.109 624.745C369.509 626.145 370.559 626.845 371.259 626.845H343.509C344.509 626.645 345.309 625.845 345.909 624.445C346.609 623.045 346.509 620.795 345.609 617.695C345.409 616.895 345.059 615.745 344.559 614.245C344.059 612.745 343.609 611.645 343.209 610.945C342.609 609.545 342.009 608.545 341.409 607.945C340.809 607.345 340.009 606.945 339.009 606.745C338.109 606.545 336.809 606.445 335.109 606.445H296.709C294.809 606.445 293.309 606.545 292.209 606.745C291.109 606.845 290.259 607.195 289.659 607.795C289.159 608.395 288.659 609.395 288.159 610.795C287.759 611.995 287.359 613.195 286.959 614.395C286.559 615.595 286.259 616.695 286.059 617.695C285.159 620.995 284.909 623.345 285.309 624.745C285.709 626.145 286.259 626.845 286.959 626.845H261.759ZM300.609 594.445H330.759C333.659 594.445 335.259 594.195 335.559 593.695C335.859 593.195 335.709 592.095 335.109 590.395C333.809 587.195 332.309 583.745 330.609 580.045C328.909 576.245 327.159 572.495 325.359 568.795C323.659 564.995 321.959 561.395 320.259 557.995C318.659 554.495 317.259 551.445 316.059 548.845H315.759C313.659 553.245 311.509 557.845 309.309 562.645C307.109 567.345 305.009 571.795 303.009 575.995C301.109 580.095 299.559 583.445 298.359 586.045C297.159 588.645 296.559 589.945 296.559 589.945C295.859 591.545 295.609 592.695 295.809 593.395C296.109 594.095 297.709 594.445 300.609 594.445ZM419.617 628.345C402.417 628.345 389.517 624.645 380.917 617.245C372.417 609.745 368.167 597.945 368.167 581.845C368.167 572.545 369.917 564.445 373.417 557.545C376.917 550.545 382.467 545.095 390.067 541.195C397.667 537.295 407.517 535.345 419.617 535.345C429.117 535.345 437.017 535.845 443.317 536.845C449.617 537.845 453.867 538.845 456.067 539.845V542.845L459.067 556.345C457.167 555.045 454.317 553.695 450.517 552.295C446.817 550.895 442.367 549.745 437.167 548.845C431.967 547.845 426.217 547.345 419.917 547.345C411.017 547.345 404.017 548.845 398.917 551.845C393.817 554.745 390.217 558.795 388.117 563.995C386.017 569.195 384.967 575.145 384.967 581.845C384.967 588.545 386.017 594.495 388.117 599.695C390.317 604.795 394.217 608.845 399.817 611.845C405.517 614.745 413.667 616.195 424.267 616.195C432.867 616.195 440.017 615.195 445.717 613.195C451.517 611.095 455.467 609.095 457.567 607.195V611.695L459.067 620.845C457.367 622.445 453.217 624.095 446.617 625.795C440.117 627.495 431.117 628.345 419.617 628.345ZM471.128 626.845C471.828 626.845 472.528 626.145 473.228 624.745C473.928 623.345 474.278 621.045 474.278 617.845V545.845C474.278 542.645 473.928 540.395 473.228 539.095C472.528 537.695 471.828 536.945 471.128 536.845H494.228C493.528 536.845 492.828 537.545 492.128 538.945C491.428 540.345 491.078 542.695 491.078 545.995V570.445C491.078 572.645 491.328 573.945 491.828 574.345C492.428 574.745 494.228 574.945 497.228 574.945H542.078C545.078 574.945 546.828 574.795 547.328 574.495C547.828 574.095 548.078 572.745 548.078 570.445V545.845C548.078 542.645 547.728 540.395 547.028 539.095C546.328 537.695 545.628 536.945 544.928 536.845H568.028C567.328 536.845 566.628 537.545 565.928 538.945C565.228 540.345 564.878 542.695 564.878 545.995V617.845C564.878 621.045 565.228 623.345 565.928 624.745C566.628 626.145 567.328 626.845 568.028 626.845H544.928C545.628 626.845 546.328 626.145 547.028 624.745C547.728 623.345 548.078 621.045 548.078 617.845V591.445C548.078 589.145 547.778 587.845 547.178 587.545C546.678 587.145 544.978 586.945 542.078 586.945H497.228C494.228 586.945 492.428 587.145 491.828 587.545C491.328 587.945 491.078 589.245 491.078 591.445V617.845C491.078 621.045 491.428 623.345 492.128 624.745C492.828 626.145 493.528 626.845 494.228 626.845H471.128ZM616.157 626.845C616.857 626.845 617.507 626.145 618.107 624.745C618.807 623.345 619.157 621.045 619.157 617.845V545.845C619.157 542.645 618.807 540.395 618.107 539.095C617.407 537.695 616.707 536.945 616.007 536.845H665.207C674.307 536.845 681.457 538.095 686.657 540.595C691.957 542.995 695.707 546.445 697.907 550.945C700.107 555.345 701.207 560.495 701.207 566.395C701.207 572.595 700.057 577.995 697.757 582.595C695.557 587.095 691.807 590.595 686.507 593.095C681.307 595.495 674.207 596.695 665.207 596.695H635.957V617.845C635.957 621.045 636.307 623.345 637.007 624.745C637.707 626.145 638.407 626.845 639.107 626.845H616.157ZM642.107 584.845H662.057C668.557 584.845 673.407 584.045 676.607 582.445C679.807 580.845 681.907 578.645 682.907 575.845C684.007 573.045 684.557 569.895 684.557 566.395C684.557 562.695 683.907 559.545 682.607 556.945C681.307 554.345 679.007 552.395 675.707 551.095C672.507 549.695 667.957 548.995 662.057 548.995H642.107C639.007 548.995 637.207 549.195 636.707 549.595C636.207 549.895 635.957 551.045 635.957 553.045V580.645C635.957 582.645 636.207 583.845 636.707 584.245C637.207 584.645 639.007 584.845 642.107 584.845ZM695.734 626.845C696.134 626.845 696.834 626.145 697.834 624.745C698.834 623.345 700.134 620.995 701.734 617.695C702.434 616.195 703.634 613.645 705.334 610.045C707.034 606.445 709.034 602.195 711.334 597.295C713.634 592.395 716.034 587.295 718.534 581.995C721.034 576.595 723.384 571.445 725.584 566.545C727.884 561.645 729.884 557.345 731.584 553.645C733.284 549.945 734.484 547.345 735.184 545.845C736.584 542.645 737.334 540.345 737.434 538.945C737.534 537.545 737.334 536.845 736.834 536.845H763.084C762.684 536.845 762.534 537.545 762.634 538.945C762.734 540.345 763.434 542.645 764.734 545.845C765.434 547.345 766.584 549.945 768.184 553.645C769.784 557.245 771.684 561.495 773.884 566.395C776.184 571.295 778.534 576.395 780.934 581.695C783.334 586.895 785.684 591.945 787.984 596.845C790.284 601.745 792.284 606.045 793.984 609.745C795.684 613.445 796.934 616.095 797.734 617.695C799.334 620.995 800.784 623.345 802.084 624.745C803.484 626.145 804.534 626.845 805.234 626.845H777.484C778.484 626.645 779.284 625.845 779.884 624.445C780.584 623.045 780.484 620.795 779.584 617.695C779.384 616.895 779.034 615.745 778.534 614.245C778.034 612.745 777.584 611.645 777.184 610.945C776.584 609.545 775.984 608.545 775.384 607.945C774.784 607.345 773.984 606.945 772.984 606.745C772.084 606.545 770.784 606.445 769.084 606.445H730.684C728.784 606.445 727.284 606.545 726.184 606.745C725.084 606.845 724.234 607.195 723.634 607.795C723.134 608.395 722.634 609.395 722.134 610.795C721.734 611.995 721.334 613.195 720.934 614.395C720.534 615.595 720.234 616.695 720.034 617.695C719.134 620.995 718.884 623.345 719.284 624.745C719.684 626.145 720.234 626.845 720.934 626.845H695.734ZM734.584 594.445H764.734C767.634 594.445 769.234 594.195 769.534 593.695C769.834 593.195 769.684 592.095 769.084 590.395C767.784 587.195 766.284 583.745 764.584 580.045C762.884 576.245 761.134 572.495 759.334 568.795C757.634 564.995 755.934 561.395 754.234 557.995C752.634 554.495 751.234 551.445 750.034 548.845H749.734C747.634 553.245 745.484 557.845 743.284 562.645C741.084 567.345 738.984 571.795 736.984 575.995C735.084 580.095 733.534 583.445 732.334 586.045C731.134 588.645 730.534 589.945 730.534 589.945C729.834 591.545 729.584 592.695 729.784 593.395C730.084 594.095 731.684 594.445 734.584 594.445ZM846.091 628.345C832.491 628.345 821.741 624.595 813.841 617.095C806.041 609.495 802.141 597.845 802.141 582.145C802.141 572.945 803.891 564.845 807.391 557.845C810.891 550.745 816.441 545.245 824.041 541.345C831.641 537.345 841.491 535.345 853.591 535.345C863.091 535.345 870.941 535.845 877.141 536.845C883.441 537.845 887.741 538.845 890.041 539.845V542.845L893.041 556.345C890.341 554.345 885.591 552.345 878.791 550.345C871.991 548.345 863.691 547.345 853.891 547.345C845.891 547.345 839.291 548.845 834.091 551.845C828.891 554.745 825.041 558.795 822.541 563.995C820.141 569.195 818.941 575.245 818.941 582.145C818.941 589.345 820.041 595.495 822.241 600.595C824.541 605.695 828.141 609.595 833.041 612.295C837.941 614.895 844.341 616.195 852.241 616.195C859.041 616.195 864.441 615.445 868.441 613.945C872.441 612.445 875.291 610.445 876.991 607.945C878.691 605.345 879.541 602.545 879.541 599.545V595.645C879.541 593.345 879.341 592.045 878.941 591.745C878.641 591.345 877.341 591.145 875.041 591.145H870.241C864.641 591.145 860.141 591.495 856.741 592.195C853.441 592.895 851.341 593.595 850.441 594.295L851.941 582.445V579.445H899.191C898.491 579.545 897.791 580.295 897.091 581.695C896.491 582.995 896.191 585.245 896.191 588.445V617.845C896.191 621.045 896.491 623.345 897.091 624.745C897.791 626.145 898.491 626.845 899.191 626.845H879.541V623.395L879.841 619.195L879.541 618.895C877.941 620.595 875.841 622.195 873.241 623.695C870.641 625.095 867.141 626.195 862.741 626.995C858.441 627.895 852.891 628.345 846.091 628.345ZM912.719 626.845C913.419 626.845 914.119 626.145 914.819 624.745C915.519 623.345 915.869 621.045 915.869 617.845V545.845C915.869 542.645 915.519 540.395 914.819 539.095C914.119 537.695 913.419 536.945 912.719 536.845H997.169V539.845L1000.17 554.245C997.669 553.145 993.269 551.995 986.969 550.795C980.669 549.495 973.069 548.845 964.169 548.845H938.819C935.819 548.845 934.019 549.095 933.419 549.595C932.919 549.995 932.669 551.245 932.669 553.345V570.445C932.669 572.645 932.919 573.945 933.419 574.345C934.019 574.745 935.769 574.945 938.669 574.945H963.419C969.219 574.945 973.869 574.645 977.369 574.045C980.969 573.345 983.319 572.645 984.419 571.945C984.019 573.245 983.569 574.795 983.069 576.595C982.569 578.395 982.169 580.195 981.869 581.995C981.569 583.795 981.419 585.445 981.419 586.945H938.669C935.769 586.945 934.019 587.145 933.419 587.545C932.919 587.845 932.669 589.145 932.669 591.445V610.045C932.669 612.345 932.919 613.695 933.419 614.095C933.919 614.495 935.669 614.695 938.669 614.695H982.319C988.119 614.695 992.769 614.045 996.269 612.745C999.869 611.345 1002.22 609.995 1003.32 608.695L1000.32 622.195V626.845H912.719ZM1059.36 628.345C1048.46 628.345 1038.81 627.845 1030.41 626.845C1022.01 625.845 1015.96 624.845 1012.26 623.845V620.845L1009.26 604.795C1010.66 606.395 1013.31 608.095 1017.21 609.895C1021.21 611.695 1026.51 613.245 1033.11 614.545C1039.71 615.745 1047.56 616.345 1056.66 616.345C1064.86 616.345 1071.06 615.795 1075.26 614.695C1079.56 613.495 1082.46 611.895 1083.96 609.895C1085.56 607.795 1086.36 605.395 1086.36 602.695C1086.36 599.495 1085.06 596.945 1082.46 595.045C1079.86 593.145 1075.96 591.645 1070.76 590.545C1065.66 589.345 1059.31 588.295 1051.71 587.395C1041.81 586.095 1033.86 584.395 1027.86 582.295C1021.86 580.095 1017.51 577.195 1014.81 573.595C1012.11 569.995 1010.76 565.445 1010.76 559.945C1010.76 555.245 1012.16 551.045 1014.96 547.345C1017.86 543.645 1022.21 540.745 1028.01 538.645C1033.81 536.445 1041.21 535.345 1050.21 535.345C1060.61 535.345 1069.66 535.845 1077.36 536.845C1085.06 537.845 1090.51 538.845 1093.71 539.845V542.845L1098.21 556.345C1096.11 555.045 1092.86 553.695 1088.46 552.295C1084.16 550.895 1078.96 549.745 1072.86 548.845C1066.76 547.845 1059.96 547.345 1052.46 547.345C1046.26 547.345 1041.31 547.795 1037.61 548.695C1034.01 549.595 1031.41 550.945 1029.81 552.745C1028.31 554.445 1027.56 556.545 1027.56 559.045C1027.56 562.345 1028.76 564.995 1031.16 566.995C1033.66 568.995 1037.26 570.545 1041.96 571.645C1046.76 572.745 1052.56 573.695 1059.36 574.495C1070.16 575.695 1078.76 577.395 1085.16 579.595C1091.56 581.795 1096.16 584.745 1098.96 588.445C1101.76 592.145 1103.16 596.945 1103.16 602.845C1103.16 606.745 1102.21 610.295 1100.31 613.495C1098.51 616.595 1095.76 619.295 1092.06 621.595C1088.36 623.795 1083.76 625.495 1078.26 626.695C1072.86 627.795 1066.56 628.345 1059.36 628.345Z" fill="#FFF8F3"/>
<path d="M174.37 794.845V791.7C177.058 791.592 179.047 791.377 180.338 791.054C181.682 790.678 182.569 790.006 182.999 789.038C183.429 788.071 183.644 786.646 183.644 784.764V747.829C183.644 745.893 183.429 744.468 182.999 743.554C182.569 742.587 181.682 741.915 180.338 741.538C179.047 741.162 177.058 740.947 174.37 740.893V737.748C175.553 737.802 177.219 737.855 179.37 737.909C181.574 737.909 184.235 737.909 187.354 737.909C188.967 737.909 190.445 737.909 191.789 737.909C193.187 737.909 194.45 737.909 195.579 737.909C196.762 737.855 197.811 737.829 198.725 737.829C199.639 737.775 200.391 737.748 200.983 737.748C207.757 737.748 212.999 739.011 216.709 741.538C220.418 744.065 222.273 747.614 222.273 752.183C222.273 755.355 221.332 758.097 219.45 760.409C217.569 762.721 214.907 764.522 211.467 765.812C208.026 767.049 203.94 767.667 199.209 767.667H188.725V765.409H199.047C203.671 765.409 207.085 764.388 209.289 762.345C211.547 760.302 212.676 757.21 212.676 753.071C212.676 748.985 211.574 745.947 209.37 743.958C207.166 741.915 203.832 740.893 199.37 740.893H192.999V784.764C192.999 786.646 193.214 788.071 193.644 789.038C194.074 790.006 194.934 790.678 196.225 791.054C197.569 791.377 199.558 791.592 202.192 791.7V794.845C199.666 794.683 195.042 794.603 188.321 794.603C181.655 794.603 177.004 794.683 174.37 794.845ZM222.031 795.974C219.182 795.974 216.95 795.248 215.338 793.796C213.778 792.291 212.649 789.872 211.95 786.538L209.854 777.506C209.37 775.194 208.725 773.393 207.918 772.103C207.112 770.759 206.036 769.818 204.692 769.28C203.348 768.743 201.574 768.474 199.37 768.474H189.209V766.377H198.563C203.348 766.377 207.139 766.753 209.934 767.506C212.784 768.259 214.961 769.576 216.467 771.458C217.972 773.339 219.128 776.001 219.934 779.442L221.386 785.409C221.87 787.452 222.461 788.904 223.16 789.764C223.913 790.571 224.881 790.974 226.063 790.974C226.762 790.92 227.381 790.759 227.918 790.49C228.51 790.167 229.155 789.63 229.854 788.877L231.547 791.054C230.257 792.775 228.859 794.038 227.354 794.845C225.848 795.597 224.074 795.974 222.031 795.974ZM255.142 795.974C251.217 795.974 247.803 795.114 244.9 793.393C241.996 791.619 239.738 789.092 238.125 785.812C236.566 782.533 235.787 778.662 235.787 774.2C235.787 769.63 236.593 765.705 238.206 762.425C239.819 759.092 242.131 756.538 245.142 754.764C248.152 752.99 251.701 752.103 255.787 752.103C259.389 752.103 262.48 752.802 265.061 754.2C267.642 755.544 269.604 757.667 270.948 760.571C272.292 763.474 272.91 767.237 272.803 771.861H241.835L241.755 768.796H264.174C264.228 766.216 263.959 763.904 263.367 761.861C262.776 759.818 261.808 758.205 260.464 757.022C259.174 755.839 257.507 755.248 255.464 755.248C252.884 755.248 250.599 756.404 248.609 758.716C246.674 760.974 245.518 764.576 245.142 769.522L245.303 769.764C245.249 770.302 245.195 770.893 245.142 771.538C245.142 772.13 245.142 772.802 245.142 773.554C245.142 779.092 246.217 783.42 248.367 786.538C250.572 789.603 253.69 791.135 257.722 791.135C260.41 791.135 262.776 790.463 264.819 789.119C266.916 787.775 268.663 785.705 270.061 782.909L272.884 784.603C271.432 788.205 269.147 791.001 266.029 792.99C262.964 794.979 259.335 795.974 255.142 795.974ZM300.034 795.571L284.953 761.619C284.147 759.845 283.098 758.554 281.808 757.748C280.518 756.888 278.851 756.458 276.808 756.458V753.312C278.475 753.366 280.141 753.42 281.808 753.474C283.528 753.528 285.572 753.554 287.937 753.554C290.141 753.554 292.131 753.528 293.905 753.474C295.733 753.42 297.534 753.366 299.308 753.312V756.458C296.674 756.511 295.034 757.022 294.389 757.99C293.744 758.958 293.932 760.597 294.953 762.909L304.953 785.49L303.582 786.135L310.921 767.99C311.942 765.571 312.453 763.528 312.453 761.861C312.453 760.194 311.969 758.904 311.002 757.99C310.034 757.076 308.555 756.565 306.566 756.458V753.312C308.018 753.366 309.281 753.42 310.356 753.474C311.432 753.474 312.426 753.474 313.34 753.474C314.308 753.474 315.33 753.474 316.405 753.474C318.018 753.474 319.55 753.474 321.002 753.474C322.507 753.42 323.824 753.366 324.953 753.312V756.458C322.695 756.673 320.813 757.479 319.308 758.877C317.856 760.221 316.512 762.398 315.276 765.409L303.018 795.571H300.034ZM329.495 794.845V791.7C332.667 791.646 334.898 791.216 336.189 790.409C337.479 789.603 338.124 788.097 338.124 785.893V763.474C338.124 761.001 337.479 759.226 336.189 758.151C334.952 757.076 332.721 756.485 329.495 756.377V753.232C330.57 753.286 331.673 753.339 332.802 753.393C333.931 753.447 335.087 753.474 336.269 753.474C338.259 753.474 340.14 753.393 341.915 753.232C343.742 753.017 345.409 752.721 346.915 752.345V785.893C346.915 788.097 347.533 789.603 348.769 790.409C350.06 791.216 352.318 791.646 355.544 791.7V794.845C354.737 794.791 353.608 794.764 352.156 794.764C350.759 794.71 349.199 794.657 347.479 794.603C345.812 794.549 344.173 794.522 342.56 794.522C340.087 794.522 337.587 794.576 335.06 794.683C332.587 794.737 330.732 794.791 329.495 794.845ZM342.237 744.119C340.678 744.119 339.307 743.581 338.124 742.506C336.995 741.431 336.431 740.06 336.431 738.393C336.431 736.726 336.995 735.355 338.124 734.28C339.307 733.205 340.678 732.667 342.237 732.667C343.85 732.667 345.221 733.205 346.35 734.28C347.533 735.355 348.124 736.726 348.124 738.393C348.124 740.06 347.533 741.431 346.35 742.506C345.221 743.581 343.85 744.119 342.237 744.119ZM381.509 795.974C377.584 795.974 374.17 795.114 371.267 793.393C368.364 791.619 366.106 789.092 364.493 785.812C362.934 782.533 362.154 778.662 362.154 774.2C362.154 769.63 362.96 765.705 364.573 762.425C366.186 759.092 368.498 756.538 371.509 754.764C374.52 752.99 378.068 752.103 382.154 752.103C385.756 752.103 388.848 752.802 391.428 754.2C394.009 755.544 395.971 757.667 397.315 760.571C398.659 763.474 399.278 767.237 399.17 771.861H368.202L368.122 768.796H390.541C390.595 766.216 390.326 763.904 389.735 761.861C389.143 759.818 388.175 758.205 386.831 757.022C385.541 755.839 383.874 755.248 381.831 755.248C379.251 755.248 376.966 756.404 374.977 758.716C373.041 760.974 371.885 764.576 371.509 769.522L371.67 769.764C371.616 770.302 371.563 770.893 371.509 771.538C371.509 772.13 371.509 772.802 371.509 773.554C371.509 779.092 372.584 783.42 374.735 786.538C376.939 789.603 380.057 791.135 384.089 791.135C386.778 791.135 389.143 790.463 391.186 789.119C393.283 787.775 395.03 785.705 396.428 782.909L399.251 784.603C397.799 788.205 395.514 791.001 392.396 792.99C389.331 794.979 385.702 795.974 381.509 795.974ZM424.776 795.571L411.469 761.78C410.663 759.63 409.614 758.205 408.324 757.506C407.034 756.807 405.448 756.458 403.566 756.458V753.312C405.017 753.366 406.577 753.42 408.243 753.474C409.964 753.528 412.061 753.554 414.534 753.554C417.276 753.554 419.641 753.528 421.63 753.474C423.673 753.42 425.501 753.366 427.114 753.312V756.458C423.781 756.511 421.738 756.995 420.985 757.909C420.286 758.769 420.448 760.544 421.469 763.232L429.453 784.038L428.163 785.167L439.292 752.99L441.953 755.006L427.679 795.571H424.776ZM451.388 795.571L437.84 763.796L439.292 752.99H442.517L456.066 784.603L454.453 785.974L460.743 767.99C461.657 765.463 462.034 763.366 461.872 761.7C461.711 759.979 461.012 758.689 459.776 757.829C458.539 756.968 456.765 756.511 454.453 756.458V753.312C456.012 753.366 457.356 753.42 458.485 753.474C459.614 753.474 460.663 753.474 461.63 753.474C462.598 753.474 463.62 753.474 464.695 753.474C466.362 753.474 467.974 753.474 469.534 753.474C471.147 753.42 472.679 753.366 474.13 753.312V756.458C471.819 756.726 469.991 757.506 468.647 758.796C467.302 760.087 466.12 762.183 465.098 765.087L454.372 795.571H451.388ZM519.239 795.974C515.099 795.974 512.008 794.818 509.965 792.506C507.975 790.14 506.981 786.592 506.981 781.861V756.377H497.545V753.312H506.981V741.216C508.647 741.162 510.207 741.028 511.658 740.812C513.11 740.597 514.481 740.302 515.771 739.925V753.312H529.239V756.377H515.771V784.28C515.771 786.7 516.228 788.501 517.142 789.683C518.11 790.812 519.588 791.377 521.577 791.377C523.405 791.377 524.911 790.786 526.094 789.603C527.33 788.42 528.298 786.7 528.997 784.442L531.416 785.248C530.502 788.958 529.051 791.673 527.061 793.393C525.126 795.114 522.518 795.974 519.239 795.974ZM563.852 794.845V791.7C566.056 791.646 567.562 791.216 568.368 790.409C569.228 789.549 569.658 788.044 569.658 785.893V766.619C569.658 763.339 569.013 760.866 567.723 759.2C566.433 757.533 564.497 756.7 561.916 756.7C559.82 756.7 557.884 757.291 556.11 758.474C554.336 759.603 552.777 761.269 551.433 763.474L551.513 759.925C552.857 757.452 554.739 755.544 557.158 754.2C559.631 752.802 562.373 752.103 565.384 752.103C569.578 752.103 572.804 753.42 575.062 756.054C577.373 758.689 578.529 762.452 578.529 767.345V785.893C578.529 788.044 579.148 789.549 580.384 790.409C581.621 791.216 583.879 791.646 587.158 791.7V794.845C586.352 794.791 585.223 794.764 583.771 794.764C582.373 794.71 580.814 794.657 579.094 794.603C577.427 794.549 575.814 794.522 574.255 794.522C572.212 794.522 570.196 794.576 568.207 794.683C566.271 794.737 564.82 794.791 563.852 794.845ZM534.497 794.845V791.7C537.777 791.646 540.035 791.216 541.271 790.409C542.508 789.549 543.126 788.044 543.126 785.893V742.829C543.126 740.302 542.481 738.528 541.191 737.506C539.9 736.431 537.669 735.839 534.497 735.732V732.587C535.626 732.64 536.755 732.694 537.884 732.748C539.013 732.802 540.169 732.829 541.352 732.829C543.287 732.829 545.142 732.748 546.916 732.587C548.691 732.372 550.357 732.076 551.916 731.7V785.893C551.916 788.044 552.32 789.549 553.126 790.409C553.986 791.216 555.519 791.646 557.723 791.7V794.845C556.648 794.791 555.169 794.737 553.287 794.683C551.406 794.576 549.47 794.522 547.481 794.522C545.169 794.522 542.777 794.576 540.304 794.683C537.884 794.737 535.949 794.791 534.497 794.845ZM612.954 795.974C609.029 795.974 605.615 795.114 602.712 793.393C599.809 791.619 597.551 789.092 595.938 785.812C594.379 782.533 593.599 778.662 593.599 774.2C593.599 769.63 594.406 765.705 596.019 762.425C597.632 759.092 599.943 756.538 602.954 754.764C605.965 752.99 609.513 752.103 613.599 752.103C617.201 752.103 620.293 752.802 622.873 754.2C625.454 755.544 627.416 757.667 628.761 760.571C630.105 763.474 630.723 767.237 630.615 771.861H599.648L599.567 768.796H621.986C622.04 766.216 621.771 763.904 621.18 761.861C620.589 759.818 619.621 758.205 618.277 757.022C616.986 755.839 615.32 755.248 613.277 755.248C610.696 755.248 608.411 756.404 606.422 758.716C604.486 760.974 603.33 764.576 602.954 769.522L603.115 769.764C603.062 770.302 603.008 770.893 602.954 771.538C602.954 772.13 602.954 772.802 602.954 773.554C602.954 779.092 604.029 783.42 606.18 786.538C608.384 789.603 611.502 791.135 615.535 791.135C618.223 791.135 620.589 790.463 622.632 789.119C624.728 787.775 626.476 785.705 627.873 782.909L630.696 784.603C629.244 788.205 626.959 791.001 623.841 792.99C620.777 794.979 617.148 795.974 612.954 795.974ZM680.397 795.974C678.031 795.974 676.069 795.705 674.51 795.167C672.951 794.683 671.66 794.226 670.639 793.796C669.617 793.312 668.73 793.071 667.977 793.071C666.741 793.071 665.827 793.904 665.235 795.571H662.171C662.278 794.226 662.359 792.802 662.413 791.296C662.467 789.737 662.494 787.99 662.494 786.054C662.547 784.119 662.547 781.915 662.494 779.442H665.558C666.365 783.904 667.897 787.237 670.155 789.442C672.467 791.646 675.531 792.748 679.348 792.748C682.09 792.748 684.187 792.183 685.639 791.054C687.144 789.872 687.897 788.232 687.897 786.135C687.897 784.092 687.117 782.452 685.558 781.216C683.999 779.925 681.284 778.716 677.413 777.587C672.52 776.189 668.945 774.388 666.687 772.183C664.429 769.979 663.3 767.21 663.3 763.877C663.3 760.329 664.483 757.479 666.848 755.329C669.214 753.178 672.386 752.103 676.365 752.103C678.515 752.103 680.316 752.345 681.768 752.829C683.219 753.312 684.456 753.823 685.477 754.361C686.499 754.845 687.413 755.087 688.219 755.087C688.757 755.087 689.214 754.898 689.59 754.522C689.967 754.092 690.289 753.447 690.558 752.587H693.703C693.596 753.716 693.515 754.925 693.461 756.216C693.408 757.452 693.354 758.904 693.3 760.571C693.3 762.183 693.327 764.2 693.381 766.619H690.235C689.644 763.071 688.192 760.302 685.881 758.312C683.569 756.269 680.827 755.248 677.655 755.248C675.397 755.248 673.623 755.786 672.332 756.861C671.096 757.882 670.477 759.361 670.477 761.296C670.477 763.339 671.311 765.033 672.977 766.377C674.698 767.721 677.628 768.985 681.768 770.167C686.445 771.458 689.832 773.124 691.929 775.167C694.026 777.21 695.074 779.925 695.074 783.312C695.074 787.237 693.757 790.329 691.123 792.587C688.542 794.845 684.967 795.974 680.397 795.974ZM731.821 794.845V791.7C734.025 791.646 735.53 791.216 736.337 790.409C737.197 789.549 737.627 788.044 737.627 785.893V766.619C737.627 763.339 736.982 760.866 735.692 759.2C734.401 757.533 732.466 756.7 729.885 756.7C727.788 756.7 725.853 757.291 724.079 758.474C722.305 759.603 720.745 761.269 719.401 763.474L719.482 759.925C720.826 757.452 722.708 755.544 725.127 754.2C727.6 752.802 730.342 752.103 733.353 752.103C737.546 752.103 740.772 753.42 743.03 756.054C745.342 758.689 746.498 762.452 746.498 767.345V785.893C746.498 788.044 747.116 789.549 748.353 790.409C749.589 791.216 751.848 791.646 755.127 791.7V794.845C754.321 794.791 753.192 794.764 751.74 794.764C750.342 794.71 748.783 794.657 747.063 794.603C745.396 794.549 743.783 794.522 742.224 794.522C740.181 794.522 738.165 794.576 736.176 794.683C734.24 794.737 732.788 794.791 731.821 794.845ZM702.466 794.845V791.7C705.745 791.646 708.003 791.216 709.24 790.409C710.477 789.549 711.095 788.044 711.095 785.893V742.829C711.095 740.302 710.45 738.528 709.159 737.506C707.869 736.431 705.638 735.839 702.466 735.732V732.587C703.595 732.64 704.724 732.694 705.853 732.748C706.982 732.802 708.138 732.829 709.321 732.829C711.256 732.829 713.111 732.748 714.885 732.587C716.659 732.372 718.326 732.076 719.885 731.7V785.893C719.885 788.044 720.288 789.549 721.095 790.409C721.955 791.216 723.487 791.646 725.692 791.7V794.845C724.616 794.791 723.138 794.737 721.256 794.683C719.374 794.576 717.439 794.522 715.45 794.522C713.138 794.522 710.745 794.576 708.272 794.683C705.853 794.737 703.917 794.791 702.466 794.845ZM780.923 795.974C776.998 795.974 773.584 795.114 770.681 793.393C767.778 791.619 765.52 789.092 763.907 785.812C762.348 782.533 761.568 778.662 761.568 774.2C761.568 769.63 762.374 765.705 763.987 762.425C765.6 759.092 767.912 756.538 770.923 754.764C773.934 752.99 777.482 752.103 781.568 752.103C785.17 752.103 788.262 752.802 790.842 754.2C793.423 755.544 795.385 757.667 796.729 760.571C798.073 763.474 798.692 767.237 798.584 771.861H767.616L767.536 768.796H789.955C790.009 766.216 789.74 763.904 789.149 761.861C788.557 759.818 787.59 758.205 786.245 757.022C784.955 755.839 783.288 755.248 781.245 755.248C778.665 755.248 776.38 756.404 774.391 758.716C772.455 760.974 771.299 764.576 770.923 769.522L771.084 769.764C771.03 770.302 770.977 770.893 770.923 771.538C770.923 772.13 770.923 772.802 770.923 773.554C770.923 779.092 771.998 783.42 774.149 786.538C776.353 789.603 779.471 791.135 783.504 791.135C786.192 791.135 788.557 790.463 790.6 789.119C792.697 787.775 794.444 785.705 795.842 782.909L798.665 784.603C797.213 788.205 794.928 791.001 791.81 792.99C788.745 794.979 785.116 795.974 780.923 795.974ZM805.103 794.845V791.7C808.275 791.646 810.506 791.216 811.796 790.409C813.086 789.603 813.732 788.097 813.732 785.893V742.829C813.732 740.355 813.086 738.581 811.796 737.506C810.56 736.377 808.328 735.786 805.103 735.732V732.506C806.178 732.56 807.28 732.614 808.409 732.667C809.592 732.721 810.748 732.748 811.877 732.748C813.866 732.748 815.748 732.667 817.522 732.506C819.35 732.291 821.017 731.995 822.522 731.619V785.893C822.522 788.097 823.14 789.603 824.377 790.409C825.667 791.216 827.898 791.646 831.07 791.7V794.845C830.264 794.791 829.162 794.764 827.764 794.764C826.366 794.71 824.807 794.657 823.086 794.603C821.42 794.549 819.78 794.522 818.167 794.522C815.694 794.522 813.194 794.576 810.667 794.683C808.194 794.737 806.339 794.791 805.103 794.845ZM836.136 794.845V791.7C839.415 791.646 841.673 791.189 842.91 790.329C844.147 789.468 844.765 787.882 844.765 785.571V751.538C844.765 745.194 846.297 740.329 849.362 736.942C852.48 733.501 856.835 731.78 862.426 731.78C866.297 731.78 869.335 732.533 871.539 734.038C873.797 735.544 874.926 737.614 874.926 740.248C874.926 741.968 874.389 743.393 873.313 744.522C872.292 745.597 870.948 746.135 869.281 746.135C867.991 746.135 866.969 745.812 866.216 745.167C865.464 744.468 865.087 743.581 865.087 742.506C865.087 741.646 865.249 740.893 865.571 740.248C865.948 739.549 866.297 738.904 866.62 738.312C866.996 737.667 867.184 737.103 867.184 736.619C867.184 735.382 865.948 734.764 863.475 734.764C860.087 734.764 857.587 735.92 855.975 738.232C854.362 740.544 853.555 744.146 853.555 749.038V785.409C853.555 787.667 854.389 789.28 856.055 790.248C857.722 791.162 860.598 791.646 864.684 791.7V794.845C863.663 794.791 862.292 794.764 860.571 794.764C858.905 794.71 857.077 794.657 855.087 794.603C853.098 794.549 851.19 794.522 849.362 794.522C846.62 794.522 844.039 794.576 841.62 794.683C839.2 794.737 837.372 794.791 836.136 794.845ZM835.813 756.377V753.312H865.087V756.377H835.813ZM875.812 807.506L874.844 805.167C877.747 804.253 879.952 802.99 881.457 801.377C882.963 799.818 883.715 798.151 883.715 796.377C883.715 795.14 883.231 794.522 882.264 794.522C881.78 794.522 881.188 794.63 880.489 794.845C879.79 795.114 878.984 795.248 878.07 795.248C876.457 795.248 875.14 794.737 874.118 793.716C873.151 792.694 872.667 791.377 872.667 789.764C872.667 787.936 873.285 786.458 874.522 785.329C875.812 784.146 877.452 783.554 879.441 783.554C881.86 783.554 883.742 784.442 885.086 786.216C886.484 787.936 887.183 790.329 887.183 793.393C887.183 796.888 886.215 799.818 884.28 802.183C882.344 804.549 879.522 806.323 875.812 807.506ZM284.534 914.845V911.7C286.792 911.646 288.324 911.216 289.13 910.409C289.991 909.549 290.421 908.044 290.421 905.893V886.619C290.421 883.339 289.749 880.866 288.405 879.2C287.114 877.533 285.179 876.7 282.598 876.7C280.501 876.7 278.566 877.291 276.792 878.474C275.017 879.603 273.458 881.269 272.114 883.474L272.195 879.925C273.539 877.506 275.421 875.597 277.84 874.2C280.259 872.802 283.001 872.103 286.066 872.103C290.259 872.103 293.485 873.42 295.743 876.054C298.055 878.689 299.211 882.452 299.211 887.345V905.893C299.211 908.044 299.829 909.549 301.066 910.409C302.302 911.216 304.561 911.646 307.84 911.7V914.845C307.034 914.791 305.905 914.764 304.453 914.764C303.055 914.71 301.496 914.657 299.776 914.603C298.109 914.549 296.496 914.522 294.937 914.522C292.894 914.522 290.878 914.576 288.888 914.683C286.953 914.737 285.501 914.791 284.534 914.845ZM255.179 914.845V911.7C258.405 911.646 260.636 911.216 261.872 910.409C263.163 909.549 263.808 908.044 263.808 905.893V883.474C263.808 880.947 263.163 879.173 261.872 878.151C260.582 877.076 258.351 876.485 255.179 876.377V873.232C256.254 873.286 257.356 873.339 258.485 873.393C259.614 873.447 260.797 873.474 262.034 873.474C264.023 873.474 265.878 873.393 267.598 873.232C269.372 873.017 271.039 872.721 272.598 872.345V905.893C272.598 908.044 273.001 909.549 273.808 910.409C274.668 911.216 276.227 911.646 278.485 911.7V914.845C277.249 914.791 275.716 914.737 273.888 914.683C272.061 914.576 270.152 914.522 268.163 914.522C265.905 914.522 263.566 914.576 261.147 914.683C258.727 914.737 256.738 914.791 255.179 914.845ZM334.808 915.974C330.99 915.974 327.577 915.194 324.566 913.635C321.609 912.076 319.243 909.683 317.469 906.458C315.749 903.232 314.888 899.119 314.888 894.119C314.888 889.065 315.749 884.925 317.469 881.7C319.243 878.42 321.636 876.001 324.646 874.442C327.657 872.882 331.044 872.103 334.808 872.103C338.625 872.103 342.012 872.882 344.969 874.442C347.926 876.001 350.265 878.42 351.985 881.7C353.759 884.925 354.646 889.065 354.646 894.119C354.646 899.119 353.759 903.232 351.985 906.458C350.265 909.683 347.926 912.076 344.969 913.635C342.012 915.194 338.625 915.974 334.808 915.974ZM334.808 912.829C337.818 912.829 340.318 911.35 342.308 908.393C344.297 905.436 345.292 900.678 345.292 894.119C345.292 887.506 344.297 882.721 342.308 879.764C340.318 876.753 337.818 875.248 334.808 875.248C331.743 875.248 329.216 876.753 327.227 879.764C325.238 882.721 324.243 887.506 324.243 894.119C324.243 900.678 325.238 905.436 327.227 908.393C329.216 911.35 331.743 912.829 334.808 912.829ZM382.227 915.974C378.087 915.974 374.996 914.818 372.953 912.506C370.964 910.14 369.969 906.592 369.969 901.861V876.377H360.533V873.312H369.969V861.216C371.636 861.162 373.195 861.028 374.646 860.812C376.098 860.597 377.469 860.302 378.759 859.925V873.312H392.227V876.377H378.759V904.28C378.759 906.7 379.216 908.501 380.13 909.683C381.098 910.812 382.577 911.377 384.566 911.377C386.394 911.377 387.899 910.786 389.082 909.603C390.318 908.42 391.286 906.7 391.985 904.442L394.404 905.248C393.49 908.958 392.039 911.673 390.05 913.393C388.114 915.114 385.507 915.974 382.227 915.974ZM412.794 934.119V931.216C417.902 931.108 421.611 929.683 423.923 926.942C426.235 924.2 427.391 919.845 427.391 913.877V883.474C427.391 880.947 426.746 879.173 425.455 878.151C424.165 877.076 421.934 876.485 418.762 876.377V873.232C420.859 873.393 423.117 873.474 425.536 873.474C429.568 873.474 433.117 873.097 436.181 872.345V911.216C436.181 916.646 435.375 921.054 433.762 924.442C432.203 927.829 429.703 930.275 426.262 931.78C422.875 933.339 418.385 934.119 412.794 934.119ZM430.939 864.119C429.38 864.119 428.009 863.581 426.826 862.506C425.697 861.431 425.133 860.06 425.133 858.393C425.133 856.726 425.697 855.355 426.826 854.28C428.009 853.205 429.38 852.667 430.939 852.667C432.552 852.667 433.923 853.205 435.052 854.28C436.235 855.355 436.826 856.726 436.826 858.393C436.826 860.06 436.235 861.431 435.052 862.506C433.923 863.581 432.552 864.119 430.939 864.119ZM466.797 915.974C462.711 915.974 459.539 914.657 457.281 912.022C455.077 909.388 453.975 905.651 453.975 900.812V883.474C453.975 880.947 453.33 879.173 452.039 878.151C450.749 877.076 448.518 876.485 445.346 876.377V873.232C446.313 873.286 447.362 873.339 448.491 873.393C449.674 873.447 450.883 873.474 452.12 873.474C454.055 873.474 455.883 873.393 457.604 873.232C459.378 873.017 461.098 872.721 462.765 872.345V901.7C462.765 904.925 463.383 907.372 464.62 909.038C465.91 910.651 467.792 911.458 470.265 911.458C472.254 911.458 474.109 910.893 475.83 909.764C477.55 908.581 479.029 906.861 480.265 904.603L480.184 908.151C478.948 910.624 477.147 912.56 474.781 913.958C472.469 915.302 469.808 915.974 466.797 915.974ZM479.862 915.732V883.474C479.862 880.947 479.297 879.173 478.168 878.151C477.093 877.076 475.211 876.485 472.523 876.377V873.232C473.491 873.286 474.486 873.339 475.507 873.393C476.529 873.447 477.577 873.474 478.652 873.474C480.534 873.474 482.281 873.393 483.894 873.232C485.561 873.017 487.147 872.721 488.652 872.345V904.603C488.652 907.13 489.297 908.931 490.588 910.006C491.878 911.081 494.109 911.646 497.281 911.7V914.845C496.26 914.737 495.158 914.683 493.975 914.683C492.846 914.63 491.717 914.603 490.588 914.603C488.598 914.603 486.717 914.683 484.943 914.845C483.222 915.06 481.529 915.355 479.862 915.732ZM522.877 915.974C520.512 915.974 518.549 915.705 516.99 915.167C515.431 914.683 514.141 914.226 513.119 913.796C512.098 913.312 511.211 913.071 510.458 913.071C509.221 913.071 508.307 913.904 507.716 915.571H504.651C504.759 914.226 504.84 912.802 504.893 911.296C504.947 909.737 504.974 907.99 504.974 906.054C505.028 904.119 505.028 901.915 504.974 899.442H508.039C508.845 903.904 510.377 907.237 512.635 909.442C514.947 911.646 518.012 912.748 521.829 912.748C524.571 912.748 526.668 912.183 528.119 911.054C529.625 909.872 530.377 908.232 530.377 906.135C530.377 904.092 529.598 902.452 528.039 901.216C526.479 899.925 523.764 898.716 519.893 897.587C515.001 896.189 511.426 894.388 509.168 892.183C506.91 889.979 505.78 887.21 505.78 883.877C505.78 880.329 506.963 877.479 509.329 875.329C511.694 873.178 514.866 872.103 518.845 872.103C520.996 872.103 522.797 872.345 524.248 872.829C525.7 873.312 526.936 873.823 527.958 874.361C528.979 874.845 529.893 875.087 530.7 875.087C531.237 875.087 531.694 874.898 532.071 874.522C532.447 874.092 532.77 873.447 533.039 872.587H536.184C536.076 873.716 535.996 874.925 535.942 876.216C535.888 877.452 535.834 878.904 535.78 880.571C535.78 882.183 535.807 884.2 535.861 886.619H532.716C532.125 883.071 530.673 880.302 528.361 878.312C526.049 876.269 523.307 875.248 520.135 875.248C517.877 875.248 516.103 875.786 514.813 876.861C513.576 877.882 512.958 879.361 512.958 881.296C512.958 883.339 513.791 885.033 515.458 886.377C517.178 887.721 520.108 888.985 524.248 890.167C528.926 891.458 532.313 893.124 534.41 895.167C536.506 897.21 537.555 899.925 537.555 903.312C537.555 907.237 536.237 910.329 533.603 912.587C531.022 914.845 527.447 915.974 522.877 915.974ZM565.723 915.974C561.583 915.974 558.492 914.818 556.449 912.506C554.46 910.14 553.465 906.592 553.465 901.861V876.377H544.03V873.312H553.465V861.216C555.132 861.162 556.691 861.028 558.142 860.812C559.594 860.597 560.965 860.302 562.255 859.925V873.312H575.723V876.377H562.255V904.28C562.255 906.7 562.712 908.501 563.626 909.683C564.594 910.812 566.073 911.377 568.062 911.377C569.89 911.377 571.395 910.786 572.578 909.603C573.815 908.42 574.782 906.7 575.481 904.442L577.901 905.248C576.987 908.958 575.535 911.673 573.546 913.393C571.61 915.114 569.003 915.974 565.723 915.974ZM623.145 915.974C619.005 915.974 615.914 914.818 613.871 912.506C611.882 910.14 610.887 906.592 610.887 901.861V876.377H601.451V873.312H610.887V861.216C612.554 861.162 614.113 861.028 615.564 860.812C617.016 860.597 618.387 860.302 619.677 859.925V873.312H633.145V876.377H619.677V904.28C619.677 906.7 620.134 908.501 621.048 909.683C622.016 910.812 623.494 911.377 625.484 911.377C627.312 911.377 628.817 910.786 630 909.603C631.236 908.42 632.204 906.7 632.903 904.442L635.322 905.248C634.408 908.958 632.957 911.673 630.968 913.393C629.032 915.114 626.425 915.974 623.145 915.974ZM667.758 914.845V911.7C669.962 911.646 671.468 911.216 672.274 910.409C673.135 909.549 673.565 908.044 673.565 905.893V886.619C673.565 883.339 672.919 880.866 671.629 879.2C670.339 877.533 668.403 876.7 665.823 876.7C663.726 876.7 661.79 877.291 660.016 878.474C658.242 879.603 656.683 881.269 655.339 883.474L655.419 879.925C656.764 877.452 658.645 875.544 661.065 874.2C663.538 872.802 666.28 872.103 669.29 872.103C673.484 872.103 676.71 873.42 678.968 876.054C681.28 878.689 682.436 882.452 682.436 887.345V905.893C682.436 908.044 683.054 909.549 684.29 910.409C685.527 911.216 687.785 911.646 691.065 911.7V914.845C690.258 914.791 689.129 914.764 687.678 914.764C686.28 914.71 684.721 914.657 683 914.603C681.333 914.549 679.721 914.522 678.161 914.522C676.118 914.522 674.102 914.576 672.113 914.683C670.178 914.737 668.726 914.791 667.758 914.845ZM638.403 914.845V911.7C641.683 911.646 643.941 911.216 645.178 910.409C646.414 909.549 647.032 908.044 647.032 905.893V862.829C647.032 860.302 646.387 858.528 645.097 857.506C643.807 856.431 641.575 855.839 638.403 855.732V852.587C639.532 852.64 640.661 852.694 641.79 852.748C642.919 852.802 644.075 852.829 645.258 852.829C647.194 852.829 649.048 852.748 650.823 852.587C652.597 852.372 654.264 852.076 655.823 851.7V905.893C655.823 908.044 656.226 909.549 657.032 910.409C657.893 911.216 659.425 911.646 661.629 911.7V914.845C660.554 914.791 659.075 914.737 657.194 914.683C655.312 914.576 653.376 914.522 651.387 914.522C649.075 914.522 646.683 914.576 644.21 914.683C641.79 914.737 639.855 914.791 638.403 914.845ZM716.86 915.974C712.936 915.974 709.522 915.114 706.618 913.393C703.715 911.619 701.457 909.092 699.844 905.812C698.285 902.533 697.506 898.662 697.506 894.2C697.506 889.63 698.312 885.705 699.925 882.425C701.538 879.092 703.85 876.538 706.86 874.764C709.871 872.99 713.419 872.103 717.506 872.103C721.108 872.103 724.199 872.802 726.78 874.2C729.36 875.544 731.323 877.667 732.667 880.571C734.011 883.474 734.629 887.237 734.522 891.861H703.554L703.473 888.796H725.893C725.946 886.216 725.678 883.904 725.086 881.861C724.495 879.818 723.527 878.205 722.183 877.022C720.893 875.839 719.226 875.248 717.183 875.248C714.602 875.248 712.317 876.404 710.328 878.716C708.393 880.974 707.237 884.576 706.86 889.522L707.022 889.764C706.968 890.302 706.914 890.893 706.86 891.538C706.86 892.13 706.86 892.802 706.86 893.554C706.86 899.092 707.936 903.42 710.086 906.538C712.29 909.603 715.409 911.135 719.441 911.135C722.129 911.135 724.495 910.463 726.538 909.119C728.635 907.775 730.382 905.705 731.78 902.909L734.602 904.603C733.151 908.205 730.866 911.001 727.747 912.99C724.683 914.979 721.054 915.974 716.86 915.974ZM784.303 915.974C781.937 915.974 779.975 915.705 778.416 915.167C776.857 914.683 775.566 914.226 774.545 913.796C773.523 913.312 772.636 913.071 771.884 913.071C770.647 913.071 769.733 913.904 769.142 915.571H766.077C766.185 914.226 766.265 912.802 766.319 911.296C766.373 909.737 766.4 907.99 766.4 906.054C766.454 904.119 766.454 901.915 766.4 899.442H769.464C770.271 903.904 771.803 907.237 774.061 909.442C776.373 911.646 779.437 912.748 783.255 912.748C785.997 912.748 788.093 912.183 789.545 911.054C791.05 909.872 791.803 908.232 791.803 906.135C791.803 904.092 791.023 902.452 789.464 901.216C787.905 899.925 785.19 898.716 781.319 897.587C776.427 896.189 772.851 894.388 770.593 892.183C768.335 889.979 767.206 887.21 767.206 883.877C767.206 880.329 768.389 877.479 770.755 875.329C773.12 873.178 776.292 872.103 780.271 872.103C782.421 872.103 784.222 872.345 785.674 872.829C787.126 873.312 788.362 873.823 789.384 874.361C790.405 874.845 791.319 875.087 792.126 875.087C792.663 875.087 793.12 874.898 793.497 874.522C793.873 874.092 794.195 873.447 794.464 872.587H797.609C797.502 873.716 797.421 874.925 797.368 876.216C797.314 877.452 797.26 878.904 797.206 880.571C797.206 882.183 797.233 884.2 797.287 886.619H794.142C793.55 883.071 792.099 880.302 789.787 878.312C787.475 876.269 784.733 875.248 781.561 875.248C779.303 875.248 777.529 875.786 776.239 876.861C775.002 877.882 774.384 879.361 774.384 881.296C774.384 883.339 775.217 885.033 776.884 886.377C778.604 887.721 781.534 888.985 785.674 890.167C790.351 891.458 793.739 893.124 795.835 895.167C797.932 897.21 798.98 899.925 798.98 903.312C798.98 907.237 797.663 910.329 795.029 912.587C792.448 914.845 788.873 915.974 784.303 915.974ZM827.149 915.974C823.009 915.974 819.918 914.818 817.875 912.506C815.885 910.14 814.891 906.592 814.891 901.861V876.377H805.455V873.312H814.891V861.216C816.558 861.162 818.117 861.028 819.568 860.812C821.02 860.597 822.391 860.302 823.681 859.925V873.312H837.149V876.377H823.681V904.28C823.681 906.7 824.138 908.501 825.052 909.683C826.02 910.812 827.498 911.377 829.488 911.377C831.316 911.377 832.821 910.786 834.004 909.603C835.24 908.42 836.208 906.7 836.907 904.442L839.326 905.248C838.412 908.958 836.961 911.673 834.971 913.393C833.036 915.114 830.428 915.974 827.149 915.974ZM864.3 915.974C860.483 915.974 857.069 915.194 854.058 913.635C851.101 912.076 848.735 909.683 846.961 906.458C845.241 903.232 844.381 899.119 844.381 894.119C844.381 889.065 845.241 884.925 846.961 881.7C848.735 878.42 851.128 876.001 854.139 874.442C857.149 872.882 860.536 872.103 864.3 872.103C868.117 872.103 871.504 872.882 874.461 874.442C877.418 876.001 879.757 878.42 881.477 881.7C883.251 884.925 884.139 889.065 884.139 894.119C884.139 899.119 883.251 903.232 881.477 906.458C879.757 909.683 877.418 912.076 874.461 913.635C871.504 915.194 868.117 915.974 864.3 915.974ZM864.3 912.829C867.311 912.829 869.811 911.35 871.8 908.393C873.789 905.436 874.784 900.678 874.784 894.119C874.784 887.506 873.789 882.721 871.8 879.764C869.811 876.753 867.311 875.248 864.3 875.248C861.235 875.248 858.708 876.753 856.719 879.764C854.73 882.721 853.735 887.506 853.735 894.119C853.735 900.678 854.73 905.436 856.719 908.393C858.708 911.35 861.235 912.829 864.3 912.829ZM892.093 914.845V911.7C895.372 911.646 897.63 911.216 898.867 910.409C900.104 909.549 900.722 908.044 900.722 905.893V883.474C900.722 880.947 900.05 879.173 898.706 878.151C897.415 877.076 895.211 876.485 892.093 876.377V873.232C893.329 873.286 894.485 873.339 895.561 873.393C896.69 873.447 897.872 873.474 899.109 873.474C902.926 873.474 906.394 873.097 909.512 872.345V905.409C909.512 907.667 910.319 909.28 911.932 910.248C913.544 911.162 916.34 911.646 920.319 911.7V914.845C919.351 914.791 918.034 914.764 916.367 914.764C914.7 914.71 912.899 914.657 910.964 914.603C909.028 914.549 907.12 914.522 905.238 914.522C902.604 914.522 900.05 914.576 897.577 914.683C895.157 914.737 893.329 914.791 892.093 914.845ZM924.27 886.861C923.034 886.861 922.039 886.538 921.286 885.893C920.534 885.194 920.157 884.307 920.157 883.232C920.157 882.479 920.292 881.834 920.561 881.296C920.883 880.705 921.179 880.14 921.448 879.603C921.716 879.065 921.851 878.554 921.851 878.071C921.851 876.942 921.044 876.377 919.432 876.377C918.195 876.377 916.878 876.7 915.48 877.345C914.136 877.936 912.899 878.769 911.77 879.845C910.641 880.866 909.808 882.049 909.27 883.393L909.028 880.006C910.48 877.533 912.335 875.597 914.593 874.2C916.851 872.802 919.216 872.103 921.69 872.103C924.216 872.103 926.206 872.829 927.657 874.28C929.163 875.732 929.915 877.667 929.915 880.087C929.915 882.13 929.378 883.769 928.303 885.006C927.281 886.243 925.937 886.861 924.27 886.861ZM957.158 916.942L941.594 881.7C940.787 879.872 939.739 878.554 938.449 877.748C937.158 876.888 935.492 876.458 933.449 876.458V873.312C935.384 873.366 937.212 873.42 938.933 873.474C940.707 873.528 942.669 873.554 944.82 873.554C947.185 873.554 949.255 873.528 951.029 873.474C952.804 873.42 954.443 873.366 955.949 873.312V876.458C953.314 876.511 951.674 877.022 951.029 877.99C950.384 878.958 950.572 880.597 951.594 882.909L961.755 906.135L960.304 906.7L967.723 887.99C968.691 885.517 969.148 883.447 969.094 881.78C969.094 880.114 968.583 878.85 967.562 877.99C966.594 877.076 965.142 876.565 963.207 876.458V873.312C964.551 873.366 965.734 873.42 966.755 873.474C967.777 873.474 968.771 873.474 969.739 873.474C970.761 873.474 971.836 873.474 972.965 873.474C974.416 873.474 975.922 873.474 977.481 873.474C979.04 873.42 980.384 873.366 981.513 873.312V876.458C979.309 876.673 977.454 877.479 975.949 878.877C974.443 880.275 973.099 882.506 971.916 885.571L959.739 916.942H957.158ZM945.787 934.603C943.099 934.603 940.922 933.904 939.255 932.506C937.642 931.162 936.836 929.388 936.836 927.183C936.836 925.409 937.373 923.985 938.449 922.909C939.524 921.888 940.922 921.377 942.642 921.377C943.879 921.377 944.873 921.673 945.626 922.264C946.379 922.909 946.755 923.769 946.755 924.845C946.755 925.597 946.621 926.269 946.352 926.861C946.083 927.452 945.814 927.99 945.545 928.474C945.277 929.011 945.142 929.549 945.142 930.087C945.142 931.001 945.734 931.458 946.916 931.458C948.153 931.458 949.255 931.028 950.223 930.167C951.191 929.307 952.024 928.017 952.723 926.296L957.884 913.393L960.545 914.845L955.868 926.619C955.115 928.447 954.255 929.952 953.287 931.135C952.373 932.318 951.298 933.178 950.062 933.716C948.879 934.307 947.454 934.603 945.787 934.603ZM986.702 915.974C984.712 915.974 983.099 915.409 981.863 914.28C980.68 913.097 980.089 911.592 980.089 909.764C980.089 907.936 980.68 906.458 981.863 905.329C983.099 904.146 984.712 903.554 986.702 903.554C988.637 903.554 990.223 904.146 991.46 905.329C992.696 906.458 993.314 907.936 993.314 909.764C993.314 911.592 992.696 913.097 991.46 914.28C990.223 915.409 988.637 915.974 986.702 915.974Z" fill="#FFF8F3"/>
</svg>
